<svg width="37" height="37" viewBox="0 0 37 37" xmlns="http://www.w3.org/2000/svg" role="img" aria-label="Satsuma — https://satsuma.one">
  <rect width="37" height="37" fill="#0A0A0B"/>
  <rect x="4.00" y="4.00" width="1.00" height="1.00" fill="#FF6B35"/>
  <rect x="5.00" y="4.00" width="1.00" height="1.00" fill="#FF6B35"/>
  <rect x="6.00" y="4.00" width="1.00" height="1.00" fill="#FF6B35"/>
  <rect x="7.00" y="4.00" width="1.00" height="1.00" fill="#FF6B35"/>
  <rect x="8.00" y="4.00" width="1.00" height="1.00" fill="#FF6B35"/>
  <rect x="9.00" y="4.00" width="1.00" height="1.00" fill="#FF6B35"/>
  <rect x="10.00" y="4.00" width="1.00" height="1.00" fill="#FF6B35"/>
  <rect x="12.00" y="4.00" width="1.00" height="1.00" fill="#FF6B35"/>
  <rect x="13.00" y="4.00" width="1.00" height="1.00" fill="#FF6B35"/>
  <rect x="14.00" y="4.00" width="1.00" height="1.00" fill="#FF6B35"/>
  <rect x="15.00" y="4.00" width="1.00" height="1.00" fill="#FF6B35"/>
  <rect x="16.00" y="4.00" width="1.00" height="1.00" fill="#FF6B35"/>
  <rect x="19.00" y="4.00" width="1.00" height="1.00" fill="#FF6B35"/>
  <rect x="24.00" y="4.00" width="1.00" height="1.00" fill="#FF6B35"/>
  <rect x="26.00" y="4.00" width="1.00" height="1.00" fill="#FF6B35"/>
  <rect x="27.00" y="4.00" width="1.00" height="1.00" fill="#FF6B35"/>
  <rect x="28.00" y="4.00" width="1.00" height="1.00" fill="#FF6B35"/>
  <rect x="29.00" y="4.00" width="1.00" height="1.00" fill="#FF6B35"/>
  <rect x="30.00" y="4.00" width="1.00" height="1.00" fill="#FF6B35"/>
  <rect x="31.00" y="4.00" width="1.00" height="1.00" fill="#FF6B35"/>
  <rect x="32.00" y="4.00" width="1.00" height="1.00" fill="#FF6B35"/>
  <rect x="4.00" y="5.00" width="1.00" height="1.00" fill="#FF6B35"/>
  <rect x="10.00" y="5.00" width="1.00" height="1.00" fill="#FF6B35"/>
  <rect x="16.00" y="5.00" width="1.00" height="1.00" fill="#FF6B35"/>
  <rect x="18.00" y="5.00" width="1.00" height="1.00" fill="#FF6B35"/>
  <rect x="20.00" y="5.00" width="1.00" height="1.00" fill="#FF6B35"/>
  <rect x="21.00" y="5.00" width="1.00" height="1.00" fill="#FF6B35"/>
  <rect x="22.00" y="5.00" width="1.00" height="1.00" fill="#FF6B35"/>
  <rect x="23.00" y="5.00" width="1.00" height="1.00" fill="#FF6B35"/>
  <rect x="24.00" y="5.00" width="1.00" height="1.00" fill="#FF6B35"/>
  <rect x="26.00" y="5.00" width="1.00" height="1.00" fill="#FF6B35"/>
  <rect x="32.00" y="5.00" width="1.00" height="1.00" fill="#FF6B35"/>
  <rect x="4.00" y="6.00" width="1.00" height="1.00" fill="#FF6B35"/>
  <rect x="6.00" y="6.00" width="1.00" height="1.00" fill="#FF6B35"/>
  <rect x="7.00" y="6.00" width="1.00" height="1.00" fill="#FF6B35"/>
  <rect x="8.00" y="6.00" width="1.00" height="1.00" fill="#FF6B35"/>
  <rect x="10.00" y="6.00" width="1.00" height="1.00" fill="#FF6B35"/>
  <rect x="18.00" y="6.00" width="1.00" height="1.00" fill="#FF6B35"/>
  <rect x="19.00" y="6.00" width="1.00" height="1.00" fill="#FF6B35"/>
  <rect x="20.00" y="6.00" width="1.00" height="1.00" fill="#FF6B35"/>
  <rect x="22.00" y="6.00" width="1.00" height="1.00" fill="#FF6B35"/>
  <rect x="24.00" y="6.00" width="1.00" height="1.00" fill="#FF6B35"/>
  <rect x="26.00" y="6.00" width="1.00" height="1.00" fill="#FF6B35"/>
  <rect x="28.00" y="6.00" width="1.00" height="1.00" fill="#FF6B35"/>
  <rect x="29.00" y="6.00" width="1.00" height="1.00" fill="#FF6B35"/>
  <rect x="30.00" y="6.00" width="1.00" height="1.00" fill="#FF6B35"/>
  <rect x="32.00" y="6.00" width="1.00" height="1.00" fill="#FF6B35"/>
  <rect x="4.00" y="7.00" width="1.00" height="1.00" fill="#FF6B35"/>
  <rect x="6.00" y="7.00" width="1.00" height="1.00" fill="#FF6B35"/>
  <rect x="7.00" y="7.00" width="1.00" height="1.00" fill="#FF6B35"/>
  <rect x="8.00" y="7.00" width="1.00" height="1.00" fill="#FF6B35"/>
  <rect x="10.00" y="7.00" width="1.00" height="1.00" fill="#FF6B35"/>
  <rect x="12.00" y="7.00" width="1.00" height="1.00" fill="#FF6B35"/>
  <rect x="13.00" y="7.00" width="1.00" height="1.00" fill="#FF6B35"/>
  <rect x="15.00" y="7.00" width="1.00" height="1.00" fill="#FF6B35"/>
  <rect x="18.00" y="7.00" width="1.00" height="1.00" fill="#FF6B35"/>
  <rect x="19.00" y="7.00" width="1.00" height="1.00" fill="#FF6B35"/>
  <rect x="20.00" y="7.00" width="1.00" height="1.00" fill="#FF6B35"/>
  <rect x="22.00" y="7.00" width="1.00" height="1.00" fill="#FF6B35"/>
  <rect x="23.00" y="7.00" width="1.00" height="1.00" fill="#FF6B35"/>
  <rect x="24.00" y="7.00" width="1.00" height="1.00" fill="#FF6B35"/>
  <rect x="26.00" y="7.00" width="1.00" height="1.00" fill="#FF6B35"/>
  <rect x="28.00" y="7.00" width="1.00" height="1.00" fill="#FF6B35"/>
  <rect x="29.00" y="7.00" width="1.00" height="1.00" fill="#FF6B35"/>
  <rect x="30.00" y="7.00" width="1.00" height="1.00" fill="#FF6B35"/>
  <rect x="32.00" y="7.00" width="1.00" height="1.00" fill="#FF6B35"/>
  <rect x="4.00" y="8.00" width="1.00" height="1.00" fill="#FF6B35"/>
  <rect x="6.00" y="8.00" width="1.00" height="1.00" fill="#FF6B35"/>
  <rect x="7.00" y="8.00" width="1.00" height="1.00" fill="#FF6B35"/>
  <rect x="8.00" y="8.00" width="1.00" height="1.00" fill="#FF6B35"/>
  <rect x="10.00" y="8.00" width="1.00" height="1.00" fill="#FF6B35"/>
  <rect x="13.00" y="8.00" width="1.00" height="1.00" fill="#FF6B35"/>
  <rect x="15.00" y="8.00" width="1.00" height="1.00" fill="#FF6B35"/>
  <rect x="17.00" y="8.00" width="1.00" height="1.00" fill="#FF6B35"/>
  <rect x="18.00" y="8.00" width="1.00" height="1.00" fill="#FF6B35"/>
  <rect x="21.00" y="8.00" width="1.00" height="1.00" fill="#FF6B35"/>
  <rect x="23.00" y="8.00" width="1.00" height="1.00" fill="#FF6B35"/>
  <rect x="26.00" y="8.00" width="1.00" height="1.00" fill="#FF6B35"/>
  <rect x="28.00" y="8.00" width="1.00" height="1.00" fill="#FF6B35"/>
  <rect x="29.00" y="8.00" width="1.00" height="1.00" fill="#FF6B35"/>
  <rect x="30.00" y="8.00" width="1.00" height="1.00" fill="#FF6B35"/>
  <rect x="32.00" y="8.00" width="1.00" height="1.00" fill="#FF6B35"/>
  <rect x="4.00" y="9.00" width="1.00" height="1.00" fill="#FF6B35"/>
  <rect x="10.00" y="9.00" width="1.00" height="1.00" fill="#FF6B35"/>
  <rect x="15.00" y="9.00" width="1.00" height="1.00" fill="#FF6B35"/>
  <rect x="16.00" y="9.00" width="1.00" height="1.00" fill="#FF6B35"/>
  <rect x="17.00" y="9.00" width="1.00" height="1.00" fill="#FF6B35"/>
  <rect x="22.00" y="9.00" width="1.00" height="1.00" fill="#FF6B35"/>
  <rect x="23.00" y="9.00" width="1.00" height="1.00" fill="#FF6B35"/>
  <rect x="24.00" y="9.00" width="1.00" height="1.00" fill="#FF6B35"/>
  <rect x="26.00" y="9.00" width="1.00" height="1.00" fill="#FF6B35"/>
  <rect x="32.00" y="9.00" width="1.00" height="1.00" fill="#FF6B35"/>
  <rect x="4.00" y="10.00" width="1.00" height="1.00" fill="#FF6B35"/>
  <rect x="5.00" y="10.00" width="1.00" height="1.00" fill="#FF6B35"/>
  <rect x="6.00" y="10.00" width="1.00" height="1.00" fill="#FF6B35"/>
  <rect x="7.00" y="10.00" width="1.00" height="1.00" fill="#FF6B35"/>
  <rect x="8.00" y="10.00" width="1.00" height="1.00" fill="#FF6B35"/>
  <rect x="9.00" y="10.00" width="1.00" height="1.00" fill="#FF6B35"/>
  <rect x="10.00" y="10.00" width="1.00" height="1.00" fill="#FF6B35"/>
  <rect x="12.00" y="10.00" width="1.00" height="1.00" fill="#FF6B35"/>
  <rect x="14.00" y="10.00" width="1.00" height="1.00" fill="#FF6B35"/>
  <rect x="16.00" y="10.00" width="1.00" height="1.00" fill="#FF6B35"/>
  <rect x="18.00" y="10.00" width="1.00" height="1.00" fill="#FF6B35"/>
  <rect x="20.00" y="10.00" width="1.00" height="1.00" fill="#FF6B35"/>
  <rect x="22.00" y="10.00" width="1.00" height="1.00" fill="#FF6B35"/>
  <rect x="24.00" y="10.00" width="1.00" height="1.00" fill="#FF6B35"/>
  <rect x="26.00" y="10.00" width="1.00" height="1.00" fill="#FF6B35"/>
  <rect x="27.00" y="10.00" width="1.00" height="1.00" fill="#FF6B35"/>
  <rect x="28.00" y="10.00" width="1.00" height="1.00" fill="#FF6B35"/>
  <rect x="29.00" y="10.00" width="1.00" height="1.00" fill="#FF6B35"/>
  <rect x="30.00" y="10.00" width="1.00" height="1.00" fill="#FF6B35"/>
  <rect x="31.00" y="10.00" width="1.00" height="1.00" fill="#FF6B35"/>
  <rect x="32.00" y="10.00" width="1.00" height="1.00" fill="#FF6B35"/>
  <rect x="15.00" y="11.00" width="1.00" height="1.00" fill="#FF6B35"/>
  <rect x="18.00" y="11.00" width="1.00" height="1.00" fill="#FF6B35"/>
  <rect x="19.00" y="11.00" width="1.00" height="1.00" fill="#FF6B35"/>
  <rect x="20.00" y="11.00" width="1.00" height="1.00" fill="#FF6B35"/>
  <rect x="23.00" y="11.00" width="1.00" height="1.00" fill="#FF6B35"/>
  <rect x="6.00" y="12.00" width="1.00" height="1.00" fill="#FF6B35"/>
  <rect x="8.00" y="12.00" width="1.00" height="1.00" fill="#FF6B35"/>
  <rect x="9.00" y="12.00" width="1.00" height="1.00" fill="#FF6B35"/>
  <rect x="10.00" y="12.00" width="1.00" height="1.00" fill="#FF6B35"/>
  <rect x="12.00" y="12.00" width="1.00" height="1.00" fill="#FF6B35"/>
  <rect x="14.00" y="12.00" width="1.00" height="1.00" fill="#FF6B35"/>
  <rect x="16.00" y="12.00" width="1.00" height="1.00" fill="#FF6B35"/>
  <rect x="17.00" y="12.00" width="1.00" height="1.00" fill="#FF6B35"/>
  <rect x="18.00" y="12.00" width="1.00" height="1.00" fill="#FF6B35"/>
  <rect x="19.00" y="12.00" width="1.00" height="1.00" fill="#FF6B35"/>
  <rect x="20.00" y="12.00" width="1.00" height="1.00" fill="#FF6B35"/>
  <rect x="24.00" y="12.00" width="1.00" height="1.00" fill="#FF6B35"/>
  <rect x="25.00" y="12.00" width="1.00" height="1.00" fill="#FF6B35"/>
  <rect x="29.00" y="12.00" width="1.00" height="1.00" fill="#FF6B35"/>
  <rect x="32.00" y="12.00" width="1.00" height="1.00" fill="#FF6B35"/>
  <rect x="6.00" y="13.00" width="1.00" height="1.00" fill="#FF6B35"/>
  <rect x="8.00" y="13.00" width="1.00" height="1.00" fill="#FF6B35"/>
  <rect x="11.00" y="13.00" width="1.00" height="1.00" fill="#FF6B35"/>
  <rect x="12.00" y="13.00" width="1.00" height="1.00" fill="#FF6B35"/>
  <rect x="13.00" y="13.00" width="1.00" height="1.00" fill="#FF6B35"/>
  <rect x="14.00" y="13.00" width="1.00" height="1.00" fill="#FF6B35"/>
  <rect x="16.00" y="13.00" width="1.00" height="1.00" fill="#FF6B35"/>
  <rect x="17.00" y="13.00" width="1.00" height="1.00" fill="#FF6B35"/>
  <rect x="18.00" y="13.00" width="1.00" height="1.00" fill="#FF6B35"/>
  <rect x="19.00" y="13.00" width="1.00" height="1.00" fill="#FF6B35"/>
  <rect x="20.00" y="13.00" width="1.00" height="1.00" fill="#FF6B35"/>
  <rect x="21.00" y="13.00" width="1.00" height="1.00" fill="#FF6B35"/>
  <rect x="23.00" y="13.00" width="1.00" height="1.00" fill="#FF6B35"/>
  <rect x="24.00" y="13.00" width="1.00" height="1.00" fill="#FF6B35"/>
  <rect x="25.00" y="13.00" width="1.00" height="1.00" fill="#FF6B35"/>
  <rect x="26.00" y="13.00" width="1.00" height="1.00" fill="#FF6B35"/>
  <rect x="30.00" y="13.00" width="1.00" height="1.00" fill="#FF6B35"/>
  <rect x="32.00" y="13.00" width="1.00" height="1.00" fill="#FF6B35"/>
  <rect x="4.00" y="14.00" width="1.00" height="1.00" fill="#FF6B35"/>
  <rect x="8.00" y="14.00" width="1.00" height="1.00" fill="#FF6B35"/>
  <rect x="10.00" y="14.00" width="1.00" height="1.00" fill="#FF6B35"/>
  <rect x="14.00" y="14.00" width="1.00" height="1.00" fill="#FF6B35"/>
  <rect x="16.00" y="14.00" width="1.00" height="1.00" fill="#FF6B35"/>
  <rect x="20.00" y="14.00" width="1.00" height="1.00" fill="#FF6B35"/>
  <rect x="23.00" y="14.00" width="1.00" height="1.00" fill="#FF6B35"/>
  <rect x="24.00" y="14.00" width="1.00" height="1.00" fill="#FF6B35"/>
  <rect x="29.00" y="14.00" width="1.00" height="1.00" fill="#FF6B35"/>
  <rect x="30.00" y="14.00" width="1.00" height="1.00" fill="#FF6B35"/>
  <rect x="31.00" y="14.00" width="1.00" height="1.00" fill="#FF6B35"/>
  <rect x="32.00" y="14.00" width="1.00" height="1.00" fill="#FF6B35"/>
  <rect x="4.00" y="15.00" width="1.00" height="1.00" fill="#FF6B35"/>
  <rect x="5.00" y="15.00" width="1.00" height="1.00" fill="#FF6B35"/>
  <rect x="8.00" y="15.00" width="1.00" height="1.00" fill="#FF6B35"/>
  <rect x="13.00" y="15.00" width="1.00" height="1.00" fill="#FF6B35"/>
  <rect x="14.00" y="15.00" width="1.00" height="1.00" fill="#FF6B35"/>
  <rect x="19.00" y="15.00" width="1.00" height="1.00" fill="#FF6B35"/>
  <rect x="21.00" y="15.00" width="1.00" height="1.00" fill="#FF6B35"/>
  <rect x="22.00" y="15.00" width="1.00" height="1.00" fill="#FF6B35"/>
  <rect x="24.00" y="15.00" width="1.00" height="1.00" fill="#FF6B35"/>
  <rect x="25.00" y="15.00" width="1.00" height="1.00" fill="#FF6B35"/>
  <rect x="26.00" y="15.00" width="1.00" height="1.00" fill="#FF6B35"/>
  <rect x="28.00" y="15.00" width="1.00" height="1.00" fill="#FF6B35"/>
  <rect x="31.00" y="15.00" width="1.00" height="1.00" fill="#FF6B35"/>
  <rect x="5.00" y="16.00" width="1.00" height="1.00" fill="#FF6B35"/>
  <rect x="7.00" y="16.00" width="1.00" height="1.00" fill="#FF6B35"/>
  <rect x="9.00" y="16.00" width="1.00" height="1.00" fill="#FF6B35"/>
  <rect x="10.00" y="16.00" width="1.00" height="1.00" fill="#FF6B35"/>
  <rect x="14.00" y="16.00" width="1.00" height="1.00" fill="#FF6B35"/>
  <rect x="15.00" y="16.00" width="1.00" height="1.00" fill="#FF6B35"/>
  <rect x="17.00" y="16.00" width="1.00" height="1.00" fill="#FF6B35"/>
  <rect x="18.00" y="16.00" width="1.00" height="1.00" fill="#FF6B35"/>
  <rect x="19.00" y="16.00" width="1.00" height="1.00" fill="#FF6B35"/>
  <rect x="22.00" y="16.00" width="1.00" height="1.00" fill="#FF6B35"/>
  <rect x="23.00" y="16.00" width="1.00" height="1.00" fill="#FF6B35"/>
  <rect x="24.00" y="16.00" width="1.00" height="1.00" fill="#FF6B35"/>
  <rect x="26.00" y="16.00" width="1.00" height="1.00" fill="#FF6B35"/>
  <rect x="27.00" y="16.00" width="1.00" height="1.00" fill="#FF6B35"/>
  <rect x="6.00" y="17.00" width="1.00" height="1.00" fill="#FF6B35"/>
  <rect x="7.00" y="17.00" width="1.00" height="1.00" fill="#FF6B35"/>
  <rect x="8.00" y="17.00" width="1.00" height="1.00" fill="#FF6B35"/>
  <rect x="9.00" y="17.00" width="1.00" height="1.00" fill="#FF6B35"/>
  <rect x="12.00" y="17.00" width="1.00" height="1.00" fill="#FF6B35"/>
  <rect x="14.00" y="17.00" width="1.00" height="1.00" fill="#FF6B35"/>
  <rect x="15.00" y="17.00" width="1.00" height="1.00" fill="#FF6B35"/>
  <rect x="16.00" y="17.00" width="1.00" height="1.00" fill="#FF6B35"/>
  <rect x="19.00" y="17.00" width="1.00" height="1.00" fill="#FF6B35"/>
  <rect x="20.00" y="17.00" width="1.00" height="1.00" fill="#FF6B35"/>
  <rect x="21.00" y="17.00" width="1.00" height="1.00" fill="#FF6B35"/>
  <rect x="24.00" y="17.00" width="1.00" height="1.00" fill="#FF6B35"/>
  <rect x="25.00" y="17.00" width="1.00" height="1.00" fill="#FF6B35"/>
  <rect x="26.00" y="17.00" width="1.00" height="1.00" fill="#FF6B35"/>
  <rect x="27.00" y="17.00" width="1.00" height="1.00" fill="#FF6B35"/>
  <rect x="31.00" y="17.00" width="1.00" height="1.00" fill="#FF6B35"/>
  <rect x="32.00" y="17.00" width="1.00" height="1.00" fill="#FF6B35"/>
  <rect x="5.00" y="18.00" width="1.00" height="1.00" fill="#FF6B35"/>
  <rect x="10.00" y="18.00" width="1.00" height="1.00" fill="#FF6B35"/>
  <rect x="11.00" y="18.00" width="1.00" height="1.00" fill="#FF6B35"/>
  <rect x="12.00" y="18.00" width="1.00" height="1.00" fill="#FF6B35"/>
  <rect x="13.00" y="18.00" width="1.00" height="1.00" fill="#FF6B35"/>
  <rect x="14.00" y="18.00" width="1.00" height="1.00" fill="#FF6B35"/>
  <rect x="18.00" y="18.00" width="1.00" height="1.00" fill="#FF6B35"/>
  <rect x="20.00" y="18.00" width="1.00" height="1.00" fill="#FF6B35"/>
  <rect x="25.00" y="18.00" width="1.00" height="1.00" fill="#FF6B35"/>
  <rect x="26.00" y="18.00" width="1.00" height="1.00" fill="#FF6B35"/>
  <rect x="27.00" y="18.00" width="1.00" height="1.00" fill="#FF6B35"/>
  <rect x="30.00" y="18.00" width="1.00" height="1.00" fill="#FF6B35"/>
  <rect x="31.00" y="18.00" width="1.00" height="1.00" fill="#FF6B35"/>
  <rect x="32.00" y="18.00" width="1.00" height="1.00" fill="#FF6B35"/>
  <rect x="6.00" y="19.00" width="1.00" height="1.00" fill="#FF6B35"/>
  <rect x="7.00" y="19.00" width="1.00" height="1.00" fill="#FF6B35"/>
  <rect x="9.00" y="19.00" width="1.00" height="1.00" fill="#FF6B35"/>
  <rect x="12.00" y="19.00" width="1.00" height="1.00" fill="#FF6B35"/>
  <rect x="13.00" y="19.00" width="1.00" height="1.00" fill="#FF6B35"/>
  <rect x="15.00" y="19.00" width="1.00" height="1.00" fill="#FF6B35"/>
  <rect x="17.00" y="19.00" width="1.00" height="1.00" fill="#FF6B35"/>
  <rect x="20.00" y="19.00" width="1.00" height="1.00" fill="#FF6B35"/>
  <rect x="21.00" y="19.00" width="1.00" height="1.00" fill="#FF6B35"/>
  <rect x="22.00" y="19.00" width="1.00" height="1.00" fill="#FF6B35"/>
  <rect x="27.00" y="19.00" width="1.00" height="1.00" fill="#FF6B35"/>
  <rect x="5.00" y="20.00" width="1.00" height="1.00" fill="#FF6B35"/>
  <rect x="7.00" y="20.00" width="1.00" height="1.00" fill="#FF6B35"/>
  <rect x="8.00" y="20.00" width="1.00" height="1.00" fill="#FF6B35"/>
  <rect x="9.00" y="20.00" width="1.00" height="1.00" fill="#FF6B35"/>
  <rect x="10.00" y="20.00" width="1.00" height="1.00" fill="#FF6B35"/>
  <rect x="12.00" y="20.00" width="1.00" height="1.00" fill="#FF6B35"/>
  <rect x="13.00" y="20.00" width="1.00" height="1.00" fill="#FF6B35"/>
  <rect x="14.00" y="20.00" width="1.00" height="1.00" fill="#FF6B35"/>
  <rect x="15.00" y="20.00" width="1.00" height="1.00" fill="#FF6B35"/>
  <rect x="17.00" y="20.00" width="1.00" height="1.00" fill="#FF6B35"/>
  <rect x="19.00" y="20.00" width="1.00" height="1.00" fill="#FF6B35"/>
  <rect x="20.00" y="20.00" width="1.00" height="1.00" fill="#FF6B35"/>
  <rect x="22.00" y="20.00" width="1.00" height="1.00" fill="#FF6B35"/>
  <rect x="26.00" y="20.00" width="1.00" height="1.00" fill="#FF6B35"/>
  <rect x="29.00" y="20.00" width="1.00" height="1.00" fill="#FF6B35"/>
  <rect x="31.00" y="20.00" width="1.00" height="1.00" fill="#FF6B35"/>
  <rect x="32.00" y="20.00" width="1.00" height="1.00" fill="#FF6B35"/>
  <rect x="7.00" y="21.00" width="1.00" height="1.00" fill="#FF6B35"/>
  <rect x="8.00" y="21.00" width="1.00" height="1.00" fill="#FF6B35"/>
  <rect x="9.00" y="21.00" width="1.00" height="1.00" fill="#FF6B35"/>
  <rect x="12.00" y="21.00" width="1.00" height="1.00" fill="#FF6B35"/>
  <rect x="15.00" y="21.00" width="1.00" height="1.00" fill="#FF6B35"/>
  <rect x="19.00" y="21.00" width="1.00" height="1.00" fill="#FF6B35"/>
  <rect x="20.00" y="21.00" width="1.00" height="1.00" fill="#FF6B35"/>
  <rect x="21.00" y="21.00" width="1.00" height="1.00" fill="#FF6B35"/>
  <rect x="23.00" y="21.00" width="1.00" height="1.00" fill="#FF6B35"/>
  <rect x="25.00" y="21.00" width="1.00" height="1.00" fill="#FF6B35"/>
  <rect x="29.00" y="21.00" width="1.00" height="1.00" fill="#FF6B35"/>
  <rect x="31.00" y="21.00" width="1.00" height="1.00" fill="#FF6B35"/>
  <rect x="32.00" y="21.00" width="1.00" height="1.00" fill="#FF6B35"/>
  <rect x="4.00" y="22.00" width="1.00" height="1.00" fill="#FF6B35"/>
  <rect x="7.00" y="22.00" width="1.00" height="1.00" fill="#FF6B35"/>
  <rect x="8.00" y="22.00" width="1.00" height="1.00" fill="#FF6B35"/>
  <rect x="9.00" y="22.00" width="1.00" height="1.00" fill="#FF6B35"/>
  <rect x="10.00" y="22.00" width="1.00" height="1.00" fill="#FF6B35"/>
  <rect x="11.00" y="22.00" width="1.00" height="1.00" fill="#FF6B35"/>
  <rect x="13.00" y="22.00" width="1.00" height="1.00" fill="#FF6B35"/>
  <rect x="14.00" y="22.00" width="1.00" height="1.00" fill="#FF6B35"/>
  <rect x="15.00" y="22.00" width="1.00" height="1.00" fill="#FF6B35"/>
  <rect x="17.00" y="22.00" width="1.00" height="1.00" fill="#FF6B35"/>
  <rect x="20.00" y="22.00" width="1.00" height="1.00" fill="#FF6B35"/>
  <rect x="22.00" y="22.00" width="1.00" height="1.00" fill="#FF6B35"/>
  <rect x="25.00" y="22.00" width="1.00" height="1.00" fill="#FF6B35"/>
  <rect x="27.00" y="22.00" width="1.00" height="1.00" fill="#FF6B35"/>
  <rect x="29.00" y="22.00" width="1.00" height="1.00" fill="#FF6B35"/>
  <rect x="30.00" y="22.00" width="1.00" height="1.00" fill="#FF6B35"/>
  <rect x="31.00" y="22.00" width="1.00" height="1.00" fill="#FF6B35"/>
  <rect x="32.00" y="22.00" width="1.00" height="1.00" fill="#FF6B35"/>
  <rect x="5.00" y="23.00" width="1.00" height="1.00" fill="#FF6B35"/>
  <rect x="6.00" y="23.00" width="1.00" height="1.00" fill="#FF6B35"/>
  <rect x="7.00" y="23.00" width="1.00" height="1.00" fill="#FF6B35"/>
  <rect x="9.00" y="23.00" width="1.00" height="1.00" fill="#FF6B35"/>
  <rect x="11.00" y="23.00" width="1.00" height="1.00" fill="#FF6B35"/>
  <rect x="13.00" y="23.00" width="1.00" height="1.00" fill="#FF6B35"/>
  <rect x="18.00" y="23.00" width="1.00" height="1.00" fill="#FF6B35"/>
  <rect x="22.00" y="23.00" width="1.00" height="1.00" fill="#FF6B35"/>
  <rect x="23.00" y="23.00" width="1.00" height="1.00" fill="#FF6B35"/>
  <rect x="26.00" y="23.00" width="1.00" height="1.00" fill="#FF6B35"/>
  <rect x="28.00" y="23.00" width="1.00" height="1.00" fill="#FF6B35"/>
  <rect x="29.00" y="23.00" width="1.00" height="1.00" fill="#FF6B35"/>
  <rect x="32.00" y="23.00" width="1.00" height="1.00" fill="#FF6B35"/>
  <rect x="4.00" y="24.00" width="1.00" height="1.00" fill="#FF6B35"/>
  <rect x="9.00" y="24.00" width="1.00" height="1.00" fill="#FF6B35"/>
  <rect x="10.00" y="24.00" width="1.00" height="1.00" fill="#FF6B35"/>
  <rect x="12.00" y="24.00" width="1.00" height="1.00" fill="#FF6B35"/>
  <rect x="13.00" y="24.00" width="1.00" height="1.00" fill="#FF6B35"/>
  <rect x="19.00" y="24.00" width="1.00" height="1.00" fill="#FF6B35"/>
  <rect x="20.00" y="24.00" width="1.00" height="1.00" fill="#FF6B35"/>
  <rect x="24.00" y="24.00" width="1.00" height="1.00" fill="#FF6B35"/>
  <rect x="25.00" y="24.00" width="1.00" height="1.00" fill="#FF6B35"/>
  <rect x="26.00" y="24.00" width="1.00" height="1.00" fill="#FF6B35"/>
  <rect x="27.00" y="24.00" width="1.00" height="1.00" fill="#FF6B35"/>
  <rect x="28.00" y="24.00" width="1.00" height="1.00" fill="#FF6B35"/>
  <rect x="32.00" y="24.00" width="1.00" height="1.00" fill="#FF6B35"/>
  <rect x="12.00" y="25.00" width="1.00" height="1.00" fill="#FF6B35"/>
  <rect x="14.00" y="25.00" width="1.00" height="1.00" fill="#FF6B35"/>
  <rect x="16.00" y="25.00" width="1.00" height="1.00" fill="#FF6B35"/>
  <rect x="20.00" y="25.00" width="1.00" height="1.00" fill="#FF6B35"/>
  <rect x="21.00" y="25.00" width="1.00" height="1.00" fill="#FF6B35"/>
  <rect x="24.00" y="25.00" width="1.00" height="1.00" fill="#FF6B35"/>
  <rect x="28.00" y="25.00" width="1.00" height="1.00" fill="#FF6B35"/>
  <rect x="32.00" y="25.00" width="1.00" height="1.00" fill="#FF6B35"/>
  <rect x="4.00" y="26.00" width="1.00" height="1.00" fill="#FF6B35"/>
  <rect x="5.00" y="26.00" width="1.00" height="1.00" fill="#FF6B35"/>
  <rect x="6.00" y="26.00" width="1.00" height="1.00" fill="#FF6B35"/>
  <rect x="7.00" y="26.00" width="1.00" height="1.00" fill="#FF6B35"/>
  <rect x="8.00" y="26.00" width="1.00" height="1.00" fill="#FF6B35"/>
  <rect x="9.00" y="26.00" width="1.00" height="1.00" fill="#FF6B35"/>
  <rect x="10.00" y="26.00" width="1.00" height="1.00" fill="#FF6B35"/>
  <rect x="13.00" y="26.00" width="1.00" height="1.00" fill="#FF6B35"/>
  <rect x="14.00" y="26.00" width="1.00" height="1.00" fill="#FF6B35"/>
  <rect x="17.00" y="26.00" width="1.00" height="1.00" fill="#FF6B35"/>
  <rect x="18.00" y="26.00" width="1.00" height="1.00" fill="#FF6B35"/>
  <rect x="20.00" y="26.00" width="1.00" height="1.00" fill="#FF6B35"/>
  <rect x="22.00" y="26.00" width="1.00" height="1.00" fill="#FF6B35"/>
  <rect x="23.00" y="26.00" width="1.00" height="1.00" fill="#FF6B35"/>
  <rect x="24.00" y="26.00" width="1.00" height="1.00" fill="#FF6B35"/>
  <rect x="26.00" y="26.00" width="1.00" height="1.00" fill="#FF6B35"/>
  <rect x="28.00" y="26.00" width="1.00" height="1.00" fill="#FF6B35"/>
  <rect x="30.00" y="26.00" width="1.00" height="1.00" fill="#FF6B35"/>
  <rect x="31.00" y="26.00" width="1.00" height="1.00" fill="#FF6B35"/>
  <rect x="32.00" y="26.00" width="1.00" height="1.00" fill="#FF6B35"/>
  <rect x="4.00" y="27.00" width="1.00" height="1.00" fill="#FF6B35"/>
  <rect x="10.00" y="27.00" width="1.00" height="1.00" fill="#FF6B35"/>
  <rect x="12.00" y="27.00" width="1.00" height="1.00" fill="#FF6B35"/>
  <rect x="15.00" y="27.00" width="1.00" height="1.00" fill="#FF6B35"/>
  <rect x="16.00" y="27.00" width="1.00" height="1.00" fill="#FF6B35"/>
  <rect x="17.00" y="27.00" width="1.00" height="1.00" fill="#FF6B35"/>
  <rect x="18.00" y="27.00" width="1.00" height="1.00" fill="#FF6B35"/>
  <rect x="19.00" y="27.00" width="1.00" height="1.00" fill="#FF6B35"/>
  <rect x="21.00" y="27.00" width="1.00" height="1.00" fill="#FF6B35"/>
  <rect x="24.00" y="27.00" width="1.00" height="1.00" fill="#FF6B35"/>
  <rect x="28.00" y="27.00" width="1.00" height="1.00" fill="#FF6B35"/>
  <rect x="32.00" y="27.00" width="1.00" height="1.00" fill="#FF6B35"/>
  <rect x="4.00" y="28.00" width="1.00" height="1.00" fill="#FF6B35"/>
  <rect x="6.00" y="28.00" width="1.00" height="1.00" fill="#FF6B35"/>
  <rect x="7.00" y="28.00" width="1.00" height="1.00" fill="#FF6B35"/>
  <rect x="8.00" y="28.00" width="1.00" height="1.00" fill="#FF6B35"/>
  <rect x="10.00" y="28.00" width="1.00" height="1.00" fill="#FF6B35"/>
  <rect x="12.00" y="28.00" width="1.00" height="1.00" fill="#FF6B35"/>
  <rect x="13.00" y="28.00" width="1.00" height="1.00" fill="#FF6B35"/>
  <rect x="14.00" y="28.00" width="1.00" height="1.00" fill="#FF6B35"/>
  <rect x="15.00" y="28.00" width="1.00" height="1.00" fill="#FF6B35"/>
  <rect x="17.00" y="28.00" width="1.00" height="1.00" fill="#FF6B35"/>
  <rect x="21.00" y="28.00" width="1.00" height="1.00" fill="#FF6B35"/>
  <rect x="22.00" y="28.00" width="1.00" height="1.00" fill="#FF6B35"/>
  <rect x="24.00" y="28.00" width="1.00" height="1.00" fill="#FF6B35"/>
  <rect x="25.00" y="28.00" width="1.00" height="1.00" fill="#FF6B35"/>
  <rect x="26.00" y="28.00" width="1.00" height="1.00" fill="#FF6B35"/>
  <rect x="27.00" y="28.00" width="1.00" height="1.00" fill="#FF6B35"/>
  <rect x="28.00" y="28.00" width="1.00" height="1.00" fill="#FF6B35"/>
  <rect x="29.00" y="28.00" width="1.00" height="1.00" fill="#FF6B35"/>
  <rect x="32.00" y="28.00" width="1.00" height="1.00" fill="#FF6B35"/>
  <rect x="4.00" y="29.00" width="1.00" height="1.00" fill="#FF6B35"/>
  <rect x="6.00" y="29.00" width="1.00" height="1.00" fill="#FF6B35"/>
  <rect x="7.00" y="29.00" width="1.00" height="1.00" fill="#FF6B35"/>
  <rect x="8.00" y="29.00" width="1.00" height="1.00" fill="#FF6B35"/>
  <rect x="10.00" y="29.00" width="1.00" height="1.00" fill="#FF6B35"/>
  <rect x="14.00" y="29.00" width="1.00" height="1.00" fill="#FF6B35"/>
  <rect x="15.00" y="29.00" width="1.00" height="1.00" fill="#FF6B35"/>
  <rect x="16.00" y="29.00" width="1.00" height="1.00" fill="#FF6B35"/>
  <rect x="20.00" y="29.00" width="1.00" height="1.00" fill="#FF6B35"/>
  <rect x="21.00" y="29.00" width="1.00" height="1.00" fill="#FF6B35"/>
  <rect x="24.00" y="29.00" width="1.00" height="1.00" fill="#FF6B35"/>
  <rect x="25.00" y="29.00" width="1.00" height="1.00" fill="#FF6B35"/>
  <rect x="28.00" y="29.00" width="1.00" height="1.00" fill="#FF6B35"/>
  <rect x="30.00" y="29.00" width="1.00" height="1.00" fill="#FF6B35"/>
  <rect x="4.00" y="30.00" width="1.00" height="1.00" fill="#FF6B35"/>
  <rect x="6.00" y="30.00" width="1.00" height="1.00" fill="#FF6B35"/>
  <rect x="7.00" y="30.00" width="1.00" height="1.00" fill="#FF6B35"/>
  <rect x="8.00" y="30.00" width="1.00" height="1.00" fill="#FF6B35"/>
  <rect x="10.00" y="30.00" width="1.00" height="1.00" fill="#FF6B35"/>
  <rect x="12.00" y="30.00" width="1.00" height="1.00" fill="#FF6B35"/>
  <rect x="13.00" y="30.00" width="1.00" height="1.00" fill="#FF6B35"/>
  <rect x="15.00" y="30.00" width="1.00" height="1.00" fill="#FF6B35"/>
  <rect x="17.00" y="30.00" width="1.00" height="1.00" fill="#FF6B35"/>
  <rect x="19.00" y="30.00" width="1.00" height="1.00" fill="#FF6B35"/>
  <rect x="21.00" y="30.00" width="1.00" height="1.00" fill="#FF6B35"/>
  <rect x="23.00" y="30.00" width="1.00" height="1.00" fill="#FF6B35"/>
  <rect x="27.00" y="30.00" width="1.00" height="1.00" fill="#FF6B35"/>
  <rect x="28.00" y="30.00" width="1.00" height="1.00" fill="#FF6B35"/>
  <rect x="32.00" y="30.00" width="1.00" height="1.00" fill="#FF6B35"/>
  <rect x="4.00" y="31.00" width="1.00" height="1.00" fill="#FF6B35"/>
  <rect x="10.00" y="31.00" width="1.00" height="1.00" fill="#FF6B35"/>
  <rect x="14.00" y="31.00" width="1.00" height="1.00" fill="#FF6B35"/>
  <rect x="18.00" y="31.00" width="1.00" height="1.00" fill="#FF6B35"/>
  <rect x="19.00" y="31.00" width="1.00" height="1.00" fill="#FF6B35"/>
  <rect x="20.00" y="31.00" width="1.00" height="1.00" fill="#FF6B35"/>
  <rect x="21.00" y="31.00" width="1.00" height="1.00" fill="#FF6B35"/>
  <rect x="22.00" y="31.00" width="1.00" height="1.00" fill="#FF6B35"/>
  <rect x="23.00" y="31.00" width="1.00" height="1.00" fill="#FF6B35"/>
  <rect x="26.00" y="31.00" width="1.00" height="1.00" fill="#FF6B35"/>
  <rect x="27.00" y="31.00" width="1.00" height="1.00" fill="#FF6B35"/>
  <rect x="31.00" y="31.00" width="1.00" height="1.00" fill="#FF6B35"/>
  <rect x="4.00" y="32.00" width="1.00" height="1.00" fill="#FF6B35"/>
  <rect x="5.00" y="32.00" width="1.00" height="1.00" fill="#FF6B35"/>
  <rect x="6.00" y="32.00" width="1.00" height="1.00" fill="#FF6B35"/>
  <rect x="7.00" y="32.00" width="1.00" height="1.00" fill="#FF6B35"/>
  <rect x="8.00" y="32.00" width="1.00" height="1.00" fill="#FF6B35"/>
  <rect x="9.00" y="32.00" width="1.00" height="1.00" fill="#FF6B35"/>
  <rect x="10.00" y="32.00" width="1.00" height="1.00" fill="#FF6B35"/>
  <rect x="14.00" y="32.00" width="1.00" height="1.00" fill="#FF6B35"/>
  <rect x="16.00" y="32.00" width="1.00" height="1.00" fill="#FF6B35"/>
  <rect x="18.00" y="32.00" width="1.00" height="1.00" fill="#FF6B35"/>
  <rect x="19.00" y="32.00" width="1.00" height="1.00" fill="#FF6B35"/>
  <rect x="21.00" y="32.00" width="1.00" height="1.00" fill="#FF6B35"/>
  <rect x="23.00" y="32.00" width="1.00" height="1.00" fill="#FF6B35"/>
  <rect x="28.00" y="32.00" width="1.00" height="1.00" fill="#FF6B35"/>
  <rect x="31.00" y="32.00" width="1.00" height="1.00" fill="#FF6B35"/>
  <rect x="32.00" y="32.00" width="1.00" height="1.00" fill="#FF6B35"/>
</svg>
