<svg width="256" height="256" viewBox="0 0 256 256" xmlns="http://www.w3.org/2000/svg" role="img" aria-label="Satsuma — https://satsuma.one">
  <rect width="256" height="256" rx="40" fill="#0A0A0B"/>
  <rect x="21.67" y="21.67" width="7.33" height="7.33" fill="#FF6B35"/>
  <rect x="29.00" y="21.67" width="7.33" height="7.33" fill="#FF6B35"/>
  <rect x="36.33" y="21.67" width="7.33" height="7.33" fill="#FF6B35"/>
  <rect x="43.67" y="21.67" width="7.33" height="7.33" fill="#FF6B35"/>
  <rect x="51.00" y="21.67" width="7.33" height="7.33" fill="#FF6B35"/>
  <rect x="58.33" y="21.67" width="7.33" height="7.33" fill="#FF6B35"/>
  <rect x="65.67" y="21.67" width="7.33" height="7.33" fill="#FF6B35"/>
  <rect x="80.33" y="21.67" width="7.33" height="7.33" fill="#FF6B35"/>
  <rect x="87.67" y="21.67" width="7.33" height="7.33" fill="#FF6B35"/>
  <rect x="95.00" y="21.67" width="7.33" height="7.33" fill="#FF6B35"/>
  <rect x="102.33" y="21.67" width="7.33" height="7.33" fill="#FF6B35"/>
  <rect x="109.67" y="21.67" width="7.33" height="7.33" fill="#FF6B35"/>
  <rect x="131.67" y="21.67" width="7.33" height="7.33" fill="#FF6B35"/>
  <rect x="168.33" y="21.67" width="7.33" height="7.33" fill="#FF6B35"/>
  <rect x="183.00" y="21.67" width="7.33" height="7.33" fill="#FF6B35"/>
  <rect x="190.33" y="21.67" width="7.33" height="7.33" fill="#FF6B35"/>
  <rect x="197.67" y="21.67" width="7.33" height="7.33" fill="#FF6B35"/>
  <rect x="205.00" y="21.67" width="7.33" height="7.33" fill="#FF6B35"/>
  <rect x="212.33" y="21.67" width="7.33" height="7.33" fill="#FF6B35"/>
  <rect x="219.67" y="21.67" width="7.33" height="7.33" fill="#FF6B35"/>
  <rect x="227.00" y="21.67" width="7.33" height="7.33" fill="#FF6B35"/>
  <rect x="21.67" y="29.00" width="7.33" height="7.33" fill="#FF6B35"/>
  <rect x="65.67" y="29.00" width="7.33" height="7.33" fill="#FF6B35"/>
  <rect x="109.67" y="29.00" width="7.33" height="7.33" fill="#FF6B35"/>
  <rect x="124.33" y="29.00" width="7.33" height="7.33" fill="#FF6B35"/>
  <rect x="139.00" y="29.00" width="7.33" height="7.33" fill="#FF6B35"/>
  <rect x="146.33" y="29.00" width="7.33" height="7.33" fill="#FF6B35"/>
  <rect x="153.67" y="29.00" width="7.33" height="7.33" fill="#FF6B35"/>
  <rect x="161.00" y="29.00" width="7.33" height="7.33" fill="#FF6B35"/>
  <rect x="168.33" y="29.00" width="7.33" height="7.33" fill="#FF6B35"/>
  <rect x="183.00" y="29.00" width="7.33" height="7.33" fill="#FF6B35"/>
  <rect x="227.00" y="29.00" width="7.33" height="7.33" fill="#FF6B35"/>
  <rect x="21.67" y="36.33" width="7.33" height="7.33" fill="#FF6B35"/>
  <rect x="36.33" y="36.33" width="7.33" height="7.33" fill="#FF6B35"/>
  <rect x="43.67" y="36.33" width="7.33" height="7.33" fill="#FF6B35"/>
  <rect x="51.00" y="36.33" width="7.33" height="7.33" fill="#FF6B35"/>
  <rect x="65.67" y="36.33" width="7.33" height="7.33" fill="#FF6B35"/>
  <rect x="124.33" y="36.33" width="7.33" height="7.33" fill="#FF6B35"/>
  <rect x="131.67" y="36.33" width="7.33" height="7.33" fill="#FF6B35"/>
  <rect x="139.00" y="36.33" width="7.33" height="7.33" fill="#FF6B35"/>
  <rect x="153.67" y="36.33" width="7.33" height="7.33" fill="#FF6B35"/>
  <rect x="168.33" y="36.33" width="7.33" height="7.33" fill="#FF6B35"/>
  <rect x="183.00" y="36.33" width="7.33" height="7.33" fill="#FF6B35"/>
  <rect x="197.67" y="36.33" width="7.33" height="7.33" fill="#FF6B35"/>
  <rect x="205.00" y="36.33" width="7.33" height="7.33" fill="#FF6B35"/>
  <rect x="212.33" y="36.33" width="7.33" height="7.33" fill="#FF6B35"/>
  <rect x="227.00" y="36.33" width="7.33" height="7.33" fill="#FF6B35"/>
  <rect x="21.67" y="43.67" width="7.33" height="7.33" fill="#FF6B35"/>
  <rect x="36.33" y="43.67" width="7.33" height="7.33" fill="#FF6B35"/>
  <rect x="43.67" y="43.67" width="7.33" height="7.33" fill="#FF6B35"/>
  <rect x="51.00" y="43.67" width="7.33" height="7.33" fill="#FF6B35"/>
  <rect x="65.67" y="43.67" width="7.33" height="7.33" fill="#FF6B35"/>
  <rect x="80.33" y="43.67" width="7.33" height="7.33" fill="#FF6B35"/>
  <rect x="87.67" y="43.67" width="7.33" height="7.33" fill="#FF6B35"/>
  <rect x="102.33" y="43.67" width="7.33" height="7.33" fill="#FF6B35"/>
  <rect x="124.33" y="43.67" width="7.33" height="7.33" fill="#FF6B35"/>
  <rect x="131.67" y="43.67" width="7.33" height="7.33" fill="#FF6B35"/>
  <rect x="139.00" y="43.67" width="7.33" height="7.33" fill="#FF6B35"/>
  <rect x="153.67" y="43.67" width="7.33" height="7.33" fill="#FF6B35"/>
  <rect x="161.00" y="43.67" width="7.33" height="7.33" fill="#FF6B35"/>
  <rect x="168.33" y="43.67" width="7.33" height="7.33" fill="#FF6B35"/>
  <rect x="183.00" y="43.67" width="7.33" height="7.33" fill="#FF6B35"/>
  <rect x="197.67" y="43.67" width="7.33" height="7.33" fill="#FF6B35"/>
  <rect x="205.00" y="43.67" width="7.33" height="7.33" fill="#FF6B35"/>
  <rect x="212.33" y="43.67" width="7.33" height="7.33" fill="#FF6B35"/>
  <rect x="227.00" y="43.67" width="7.33" height="7.33" fill="#FF6B35"/>
  <rect x="21.67" y="51.00" width="7.33" height="7.33" fill="#FF6B35"/>
  <rect x="36.33" y="51.00" width="7.33" height="7.33" fill="#FF6B35"/>
  <rect x="43.67" y="51.00" width="7.33" height="7.33" fill="#FF6B35"/>
  <rect x="51.00" y="51.00" width="7.33" height="7.33" fill="#FF6B35"/>
  <rect x="65.67" y="51.00" width="7.33" height="7.33" fill="#FF6B35"/>
  <rect x="87.67" y="51.00" width="7.33" height="7.33" fill="#FF6B35"/>
  <rect x="102.33" y="51.00" width="7.33" height="7.33" fill="#FF6B35"/>
  <rect x="117.00" y="51.00" width="7.33" height="7.33" fill="#FF6B35"/>
  <rect x="124.33" y="51.00" width="7.33" height="7.33" fill="#FF6B35"/>
  <rect x="146.33" y="51.00" width="7.33" height="7.33" fill="#FF6B35"/>
  <rect x="161.00" y="51.00" width="7.33" height="7.33" fill="#FF6B35"/>
  <rect x="183.00" y="51.00" width="7.33" height="7.33" fill="#FF6B35"/>
  <rect x="197.67" y="51.00" width="7.33" height="7.33" fill="#FF6B35"/>
  <rect x="205.00" y="51.00" width="7.33" height="7.33" fill="#FF6B35"/>
  <rect x="212.33" y="51.00" width="7.33" height="7.33" fill="#FF6B35"/>
  <rect x="227.00" y="51.00" width="7.33" height="7.33" fill="#FF6B35"/>
  <rect x="21.67" y="58.33" width="7.33" height="7.33" fill="#FF6B35"/>
  <rect x="65.67" y="58.33" width="7.33" height="7.33" fill="#FF6B35"/>
  <rect x="102.33" y="58.33" width="7.33" height="7.33" fill="#FF6B35"/>
  <rect x="109.67" y="58.33" width="7.33" height="7.33" fill="#FF6B35"/>
  <rect x="117.00" y="58.33" width="7.33" height="7.33" fill="#FF6B35"/>
  <rect x="153.67" y="58.33" width="7.33" height="7.33" fill="#FF6B35"/>
  <rect x="161.00" y="58.33" width="7.33" height="7.33" fill="#FF6B35"/>
  <rect x="168.33" y="58.33" width="7.33" height="7.33" fill="#FF6B35"/>
  <rect x="183.00" y="58.33" width="7.33" height="7.33" fill="#FF6B35"/>
  <rect x="227.00" y="58.33" width="7.33" height="7.33" fill="#FF6B35"/>
  <rect x="21.67" y="65.67" width="7.33" height="7.33" fill="#FF6B35"/>
  <rect x="29.00" y="65.67" width="7.33" height="7.33" fill="#FF6B35"/>
  <rect x="36.33" y="65.67" width="7.33" height="7.33" fill="#FF6B35"/>
  <rect x="43.67" y="65.67" width="7.33" height="7.33" fill="#FF6B35"/>
  <rect x="51.00" y="65.67" width="7.33" height="7.33" fill="#FF6B35"/>
  <rect x="58.33" y="65.67" width="7.33" height="7.33" fill="#FF6B35"/>
  <rect x="65.67" y="65.67" width="7.33" height="7.33" fill="#FF6B35"/>
  <rect x="80.33" y="65.67" width="7.33" height="7.33" fill="#FF6B35"/>
  <rect x="95.00" y="65.67" width="7.33" height="7.33" fill="#FF6B35"/>
  <rect x="109.67" y="65.67" width="7.33" height="7.33" fill="#FF6B35"/>
  <rect x="124.33" y="65.67" width="7.33" height="7.33" fill="#FF6B35"/>
  <rect x="139.00" y="65.67" width="7.33" height="7.33" fill="#FF6B35"/>
  <rect x="153.67" y="65.67" width="7.33" height="7.33" fill="#FF6B35"/>
  <rect x="168.33" y="65.67" width="7.33" height="7.33" fill="#FF6B35"/>
  <rect x="183.00" y="65.67" width="7.33" height="7.33" fill="#FF6B35"/>
  <rect x="190.33" y="65.67" width="7.33" height="7.33" fill="#FF6B35"/>
  <rect x="197.67" y="65.67" width="7.33" height="7.33" fill="#FF6B35"/>
  <rect x="205.00" y="65.67" width="7.33" height="7.33" fill="#FF6B35"/>
  <rect x="212.33" y="65.67" width="7.33" height="7.33" fill="#FF6B35"/>
  <rect x="219.67" y="65.67" width="7.33" height="7.33" fill="#FF6B35"/>
  <rect x="227.00" y="65.67" width="7.33" height="7.33" fill="#FF6B35"/>
  <rect x="102.33" y="73.00" width="7.33" height="7.33" fill="#FF6B35"/>
  <rect x="124.33" y="73.00" width="7.33" height="7.33" fill="#FF6B35"/>
  <rect x="131.67" y="73.00" width="7.33" height="7.33" fill="#FF6B35"/>
  <rect x="139.00" y="73.00" width="7.33" height="7.33" fill="#FF6B35"/>
  <rect x="161.00" y="73.00" width="7.33" height="7.33" fill="#FF6B35"/>
  <rect x="36.33" y="80.33" width="7.33" height="7.33" fill="#FF6B35"/>
  <rect x="51.00" y="80.33" width="7.33" height="7.33" fill="#FF6B35"/>
  <rect x="58.33" y="80.33" width="7.33" height="7.33" fill="#FF6B35"/>
  <rect x="65.67" y="80.33" width="7.33" height="7.33" fill="#FF6B35"/>
  <rect x="80.33" y="80.33" width="7.33" height="7.33" fill="#FF6B35"/>
  <rect x="95.00" y="80.33" width="7.33" height="7.33" fill="#FF6B35"/>
  <rect x="109.67" y="80.33" width="7.33" height="7.33" fill="#FF6B35"/>
  <rect x="117.00" y="80.33" width="7.33" height="7.33" fill="#FF6B35"/>
  <rect x="124.33" y="80.33" width="7.33" height="7.33" fill="#FF6B35"/>
  <rect x="131.67" y="80.33" width="7.33" height="7.33" fill="#FF6B35"/>
  <rect x="139.00" y="80.33" width="7.33" height="7.33" fill="#FF6B35"/>
  <rect x="168.33" y="80.33" width="7.33" height="7.33" fill="#FF6B35"/>
  <rect x="175.67" y="80.33" width="7.33" height="7.33" fill="#FF6B35"/>
  <rect x="205.00" y="80.33" width="7.33" height="7.33" fill="#FF6B35"/>
  <rect x="227.00" y="80.33" width="7.33" height="7.33" fill="#FF6B35"/>
  <rect x="36.33" y="87.67" width="7.33" height="7.33" fill="#FF6B35"/>
  <rect x="51.00" y="87.67" width="7.33" height="7.33" fill="#FF6B35"/>
  <rect x="73.00" y="87.67" width="7.33" height="7.33" fill="#FF6B35"/>
  <rect x="80.33" y="87.67" width="7.33" height="7.33" fill="#FF6B35"/>
  <rect x="87.67" y="87.67" width="7.33" height="7.33" fill="#FF6B35"/>
  <rect x="95.00" y="87.67" width="7.33" height="7.33" fill="#FF6B35"/>
  <rect x="109.67" y="87.67" width="7.33" height="7.33" fill="#FF6B35"/>
  <rect x="117.00" y="87.67" width="7.33" height="7.33" fill="#FF6B35"/>
  <rect x="124.33" y="87.67" width="7.33" height="7.33" fill="#FF6B35"/>
  <rect x="131.67" y="87.67" width="7.33" height="7.33" fill="#FF6B35"/>
  <rect x="139.00" y="87.67" width="7.33" height="7.33" fill="#FF6B35"/>
  <rect x="146.33" y="87.67" width="7.33" height="7.33" fill="#FF6B35"/>
  <rect x="161.00" y="87.67" width="7.33" height="7.33" fill="#FF6B35"/>
  <rect x="168.33" y="87.67" width="7.33" height="7.33" fill="#FF6B35"/>
  <rect x="175.67" y="87.67" width="7.33" height="7.33" fill="#FF6B35"/>
  <rect x="183.00" y="87.67" width="7.33" height="7.33" fill="#FF6B35"/>
  <rect x="212.33" y="87.67" width="7.33" height="7.33" fill="#FF6B35"/>
  <rect x="227.00" y="87.67" width="7.33" height="7.33" fill="#FF6B35"/>
  <rect x="21.67" y="95.00" width="7.33" height="7.33" fill="#FF6B35"/>
  <rect x="51.00" y="95.00" width="7.33" height="7.33" fill="#FF6B35"/>
  <rect x="65.67" y="95.00" width="7.33" height="7.33" fill="#FF6B35"/>
  <rect x="95.00" y="95.00" width="7.33" height="7.33" fill="#FF6B35"/>
  <rect x="109.67" y="95.00" width="7.33" height="7.33" fill="#FF6B35"/>
  <rect x="139.00" y="95.00" width="7.33" height="7.33" fill="#FF6B35"/>
  <rect x="161.00" y="95.00" width="7.33" height="7.33" fill="#FF6B35"/>
  <rect x="168.33" y="95.00" width="7.33" height="7.33" fill="#FF6B35"/>
  <rect x="205.00" y="95.00" width="7.33" height="7.33" fill="#FF6B35"/>
  <rect x="212.33" y="95.00" width="7.33" height="7.33" fill="#FF6B35"/>
  <rect x="219.67" y="95.00" width="7.33" height="7.33" fill="#FF6B35"/>
  <rect x="227.00" y="95.00" width="7.33" height="7.33" fill="#FF6B35"/>
  <rect x="21.67" y="102.33" width="7.33" height="7.33" fill="#FF6B35"/>
  <rect x="29.00" y="102.33" width="7.33" height="7.33" fill="#FF6B35"/>
  <rect x="51.00" y="102.33" width="7.33" height="7.33" fill="#FF6B35"/>
  <rect x="87.67" y="102.33" width="7.33" height="7.33" fill="#FF6B35"/>
  <rect x="95.00" y="102.33" width="7.33" height="7.33" fill="#FF6B35"/>
  <rect x="131.67" y="102.33" width="7.33" height="7.33" fill="#FF6B35"/>
  <rect x="146.33" y="102.33" width="7.33" height="7.33" fill="#FF6B35"/>
  <rect x="153.67" y="102.33" width="7.33" height="7.33" fill="#FF6B35"/>
  <rect x="168.33" y="102.33" width="7.33" height="7.33" fill="#FF6B35"/>
  <rect x="175.67" y="102.33" width="7.33" height="7.33" fill="#FF6B35"/>
  <rect x="183.00" y="102.33" width="7.33" height="7.33" fill="#FF6B35"/>
  <rect x="197.67" y="102.33" width="7.33" height="7.33" fill="#FF6B35"/>
  <rect x="219.67" y="102.33" width="7.33" height="7.33" fill="#FF6B35"/>
  <rect x="29.00" y="109.67" width="7.33" height="7.33" fill="#FF6B35"/>
  <rect x="43.67" y="109.67" width="7.33" height="7.33" fill="#FF6B35"/>
  <rect x="58.33" y="109.67" width="7.33" height="7.33" fill="#FF6B35"/>
  <rect x="65.67" y="109.67" width="7.33" height="7.33" fill="#FF6B35"/>
  <rect x="95.00" y="109.67" width="7.33" height="7.33" fill="#FF6B35"/>
  <rect x="102.33" y="109.67" width="7.33" height="7.33" fill="#FF6B35"/>
  <rect x="117.00" y="109.67" width="7.33" height="7.33" fill="#FF6B35"/>
  <rect x="124.33" y="109.67" width="7.33" height="7.33" fill="#FF6B35"/>
  <rect x="131.67" y="109.67" width="7.33" height="7.33" fill="#FF6B35"/>
  <rect x="153.67" y="109.67" width="7.33" height="7.33" fill="#FF6B35"/>
  <rect x="161.00" y="109.67" width="7.33" height="7.33" fill="#FF6B35"/>
  <rect x="168.33" y="109.67" width="7.33" height="7.33" fill="#FF6B35"/>
  <rect x="183.00" y="109.67" width="7.33" height="7.33" fill="#FF6B35"/>
  <rect x="190.33" y="109.67" width="7.33" height="7.33" fill="#FF6B35"/>
  <rect x="36.33" y="117.00" width="7.33" height="7.33" fill="#FF6B35"/>
  <rect x="43.67" y="117.00" width="7.33" height="7.33" fill="#FF6B35"/>
  <rect x="51.00" y="117.00" width="7.33" height="7.33" fill="#FF6B35"/>
  <rect x="58.33" y="117.00" width="7.33" height="7.33" fill="#FF6B35"/>
  <rect x="80.33" y="117.00" width="7.33" height="7.33" fill="#FF6B35"/>
  <rect x="95.00" y="117.00" width="7.33" height="7.33" fill="#FF6B35"/>
  <rect x="102.33" y="117.00" width="7.33" height="7.33" fill="#FF6B35"/>
  <rect x="109.67" y="117.00" width="7.33" height="7.33" fill="#FF6B35"/>
  <rect x="131.67" y="117.00" width="7.33" height="7.33" fill="#FF6B35"/>
  <rect x="139.00" y="117.00" width="7.33" height="7.33" fill="#FF6B35"/>
  <rect x="146.33" y="117.00" width="7.33" height="7.33" fill="#FF6B35"/>
  <rect x="168.33" y="117.00" width="7.33" height="7.33" fill="#FF6B35"/>
  <rect x="175.67" y="117.00" width="7.33" height="7.33" fill="#FF6B35"/>
  <rect x="183.00" y="117.00" width="7.33" height="7.33" fill="#FF6B35"/>
  <rect x="190.33" y="117.00" width="7.33" height="7.33" fill="#FF6B35"/>
  <rect x="219.67" y="117.00" width="7.33" height="7.33" fill="#FF6B35"/>
  <rect x="227.00" y="117.00" width="7.33" height="7.33" fill="#FF6B35"/>
  <rect x="29.00" y="124.33" width="7.33" height="7.33" fill="#FF6B35"/>
  <rect x="65.67" y="124.33" width="7.33" height="7.33" fill="#FF6B35"/>
  <rect x="73.00" y="124.33" width="7.33" height="7.33" fill="#FF6B35"/>
  <rect x="80.33" y="124.33" width="7.33" height="7.33" fill="#FF6B35"/>
  <rect x="87.67" y="124.33" width="7.33" height="7.33" fill="#FF6B35"/>
  <rect x="95.00" y="124.33" width="7.33" height="7.33" fill="#FF6B35"/>
  <rect x="124.33" y="124.33" width="7.33" height="7.33" fill="#FF6B35"/>
  <rect x="139.00" y="124.33" width="7.33" height="7.33" fill="#FF6B35"/>
  <rect x="175.67" y="124.33" width="7.33" height="7.33" fill="#FF6B35"/>
  <rect x="183.00" y="124.33" width="7.33" height="7.33" fill="#FF6B35"/>
  <rect x="190.33" y="124.33" width="7.33" height="7.33" fill="#FF6B35"/>
  <rect x="212.33" y="124.33" width="7.33" height="7.33" fill="#FF6B35"/>
  <rect x="219.67" y="124.33" width="7.33" height="7.33" fill="#FF6B35"/>
  <rect x="227.00" y="124.33" width="7.33" height="7.33" fill="#FF6B35"/>
  <rect x="36.33" y="131.67" width="7.33" height="7.33" fill="#FF6B35"/>
  <rect x="43.67" y="131.67" width="7.33" height="7.33" fill="#FF6B35"/>
  <rect x="58.33" y="131.67" width="7.33" height="7.33" fill="#FF6B35"/>
  <rect x="80.33" y="131.67" width="7.33" height="7.33" fill="#FF6B35"/>
  <rect x="87.67" y="131.67" width="7.33" height="7.33" fill="#FF6B35"/>
  <rect x="102.33" y="131.67" width="7.33" height="7.33" fill="#FF6B35"/>
  <rect x="117.00" y="131.67" width="7.33" height="7.33" fill="#FF6B35"/>
  <rect x="139.00" y="131.67" width="7.33" height="7.33" fill="#FF6B35"/>
  <rect x="146.33" y="131.67" width="7.33" height="7.33" fill="#FF6B35"/>
  <rect x="153.67" y="131.67" width="7.33" height="7.33" fill="#FF6B35"/>
  <rect x="190.33" y="131.67" width="7.33" height="7.33" fill="#FF6B35"/>
  <rect x="29.00" y="139.00" width="7.33" height="7.33" fill="#FF6B35"/>
  <rect x="43.67" y="139.00" width="7.33" height="7.33" fill="#FF6B35"/>
  <rect x="51.00" y="139.00" width="7.33" height="7.33" fill="#FF6B35"/>
  <rect x="58.33" y="139.00" width="7.33" height="7.33" fill="#FF6B35"/>
  <rect x="65.67" y="139.00" width="7.33" height="7.33" fill="#FF6B35"/>
  <rect x="80.33" y="139.00" width="7.33" height="7.33" fill="#FF6B35"/>
  <rect x="87.67" y="139.00" width="7.33" height="7.33" fill="#FF6B35"/>
  <rect x="95.00" y="139.00" width="7.33" height="7.33" fill="#FF6B35"/>
  <rect x="102.33" y="139.00" width="7.33" height="7.33" fill="#FF6B35"/>
  <rect x="117.00" y="139.00" width="7.33" height="7.33" fill="#FF6B35"/>
  <rect x="131.67" y="139.00" width="7.33" height="7.33" fill="#FF6B35"/>
  <rect x="139.00" y="139.00" width="7.33" height="7.33" fill="#FF6B35"/>
  <rect x="153.67" y="139.00" width="7.33" height="7.33" fill="#FF6B35"/>
  <rect x="183.00" y="139.00" width="7.33" height="7.33" fill="#FF6B35"/>
  <rect x="205.00" y="139.00" width="7.33" height="7.33" fill="#FF6B35"/>
  <rect x="219.67" y="139.00" width="7.33" height="7.33" fill="#FF6B35"/>
  <rect x="227.00" y="139.00" width="7.33" height="7.33" fill="#FF6B35"/>
  <rect x="43.67" y="146.33" width="7.33" height="7.33" fill="#FF6B35"/>
  <rect x="51.00" y="146.33" width="7.33" height="7.33" fill="#FF6B35"/>
  <rect x="58.33" y="146.33" width="7.33" height="7.33" fill="#FF6B35"/>
  <rect x="80.33" y="146.33" width="7.33" height="7.33" fill="#FF6B35"/>
  <rect x="102.33" y="146.33" width="7.33" height="7.33" fill="#FF6B35"/>
  <rect x="131.67" y="146.33" width="7.33" height="7.33" fill="#FF6B35"/>
  <rect x="139.00" y="146.33" width="7.33" height="7.33" fill="#FF6B35"/>
  <rect x="146.33" y="146.33" width="7.33" height="7.33" fill="#FF6B35"/>
  <rect x="161.00" y="146.33" width="7.33" height="7.33" fill="#FF6B35"/>
  <rect x="175.67" y="146.33" width="7.33" height="7.33" fill="#FF6B35"/>
  <rect x="205.00" y="146.33" width="7.33" height="7.33" fill="#FF6B35"/>
  <rect x="219.67" y="146.33" width="7.33" height="7.33" fill="#FF6B35"/>
  <rect x="227.00" y="146.33" width="7.33" height="7.33" fill="#FF6B35"/>
  <rect x="21.67" y="153.67" width="7.33" height="7.33" fill="#FF6B35"/>
  <rect x="43.67" y="153.67" width="7.33" height="7.33" fill="#FF6B35"/>
  <rect x="51.00" y="153.67" width="7.33" height="7.33" fill="#FF6B35"/>
  <rect x="58.33" y="153.67" width="7.33" height="7.33" fill="#FF6B35"/>
  <rect x="65.67" y="153.67" width="7.33" height="7.33" fill="#FF6B35"/>
  <rect x="73.00" y="153.67" width="7.33" height="7.33" fill="#FF6B35"/>
  <rect x="87.67" y="153.67" width="7.33" height="7.33" fill="#FF6B35"/>
  <rect x="95.00" y="153.67" width="7.33" height="7.33" fill="#FF6B35"/>
  <rect x="102.33" y="153.67" width="7.33" height="7.33" fill="#FF6B35"/>
  <rect x="117.00" y="153.67" width="7.33" height="7.33" fill="#FF6B35"/>
  <rect x="139.00" y="153.67" width="7.33" height="7.33" fill="#FF6B35"/>
  <rect x="153.67" y="153.67" width="7.33" height="7.33" fill="#FF6B35"/>
  <rect x="175.67" y="153.67" width="7.33" height="7.33" fill="#FF6B35"/>
  <rect x="190.33" y="153.67" width="7.33" height="7.33" fill="#FF6B35"/>
  <rect x="205.00" y="153.67" width="7.33" height="7.33" fill="#FF6B35"/>
  <rect x="212.33" y="153.67" width="7.33" height="7.33" fill="#FF6B35"/>
  <rect x="219.67" y="153.67" width="7.33" height="7.33" fill="#FF6B35"/>
  <rect x="227.00" y="153.67" width="7.33" height="7.33" fill="#FF6B35"/>
  <rect x="29.00" y="161.00" width="7.33" height="7.33" fill="#FF6B35"/>
  <rect x="36.33" y="161.00" width="7.33" height="7.33" fill="#FF6B35"/>
  <rect x="43.67" y="161.00" width="7.33" height="7.33" fill="#FF6B35"/>
  <rect x="58.33" y="161.00" width="7.33" height="7.33" fill="#FF6B35"/>
  <rect x="73.00" y="161.00" width="7.33" height="7.33" fill="#FF6B35"/>
  <rect x="87.67" y="161.00" width="7.33" height="7.33" fill="#FF6B35"/>
  <rect x="124.33" y="161.00" width="7.33" height="7.33" fill="#FF6B35"/>
  <rect x="153.67" y="161.00" width="7.33" height="7.33" fill="#FF6B35"/>
  <rect x="161.00" y="161.00" width="7.33" height="7.33" fill="#FF6B35"/>
  <rect x="183.00" y="161.00" width="7.33" height="7.33" fill="#FF6B35"/>
  <rect x="197.67" y="161.00" width="7.33" height="7.33" fill="#FF6B35"/>
  <rect x="205.00" y="161.00" width="7.33" height="7.33" fill="#FF6B35"/>
  <rect x="227.00" y="161.00" width="7.33" height="7.33" fill="#FF6B35"/>
  <rect x="21.67" y="168.33" width="7.33" height="7.33" fill="#FF6B35"/>
  <rect x="58.33" y="168.33" width="7.33" height="7.33" fill="#FF6B35"/>
  <rect x="65.67" y="168.33" width="7.33" height="7.33" fill="#FF6B35"/>
  <rect x="80.33" y="168.33" width="7.33" height="7.33" fill="#FF6B35"/>
  <rect x="87.67" y="168.33" width="7.33" height="7.33" fill="#FF6B35"/>
  <rect x="131.67" y="168.33" width="7.33" height="7.33" fill="#FF6B35"/>
  <rect x="139.00" y="168.33" width="7.33" height="7.33" fill="#FF6B35"/>
  <rect x="168.33" y="168.33" width="7.33" height="7.33" fill="#FF6B35"/>
  <rect x="175.67" y="168.33" width="7.33" height="7.33" fill="#FF6B35"/>
  <rect x="183.00" y="168.33" width="7.33" height="7.33" fill="#FF6B35"/>
  <rect x="190.33" y="168.33" width="7.33" height="7.33" fill="#FF6B35"/>
  <rect x="197.67" y="168.33" width="7.33" height="7.33" fill="#FF6B35"/>
  <rect x="227.00" y="168.33" width="7.33" height="7.33" fill="#FF6B35"/>
  <rect x="80.33" y="175.67" width="7.33" height="7.33" fill="#FF6B35"/>
  <rect x="95.00" y="175.67" width="7.33" height="7.33" fill="#FF6B35"/>
  <rect x="109.67" y="175.67" width="7.33" height="7.33" fill="#FF6B35"/>
  <rect x="139.00" y="175.67" width="7.33" height="7.33" fill="#FF6B35"/>
  <rect x="146.33" y="175.67" width="7.33" height="7.33" fill="#FF6B35"/>
  <rect x="168.33" y="175.67" width="7.33" height="7.33" fill="#FF6B35"/>
  <rect x="197.67" y="175.67" width="7.33" height="7.33" fill="#FF6B35"/>
  <rect x="227.00" y="175.67" width="7.33" height="7.33" fill="#FF6B35"/>
  <rect x="21.67" y="183.00" width="7.33" height="7.33" fill="#FF6B35"/>
  <rect x="29.00" y="183.00" width="7.33" height="7.33" fill="#FF6B35"/>
  <rect x="36.33" y="183.00" width="7.33" height="7.33" fill="#FF6B35"/>
  <rect x="43.67" y="183.00" width="7.33" height="7.33" fill="#FF6B35"/>
  <rect x="51.00" y="183.00" width="7.33" height="7.33" fill="#FF6B35"/>
  <rect x="58.33" y="183.00" width="7.33" height="7.33" fill="#FF6B35"/>
  <rect x="65.67" y="183.00" width="7.33" height="7.33" fill="#FF6B35"/>
  <rect x="87.67" y="183.00" width="7.33" height="7.33" fill="#FF6B35"/>
  <rect x="95.00" y="183.00" width="7.33" height="7.33" fill="#FF6B35"/>
  <rect x="117.00" y="183.00" width="7.33" height="7.33" fill="#FF6B35"/>
  <rect x="124.33" y="183.00" width="7.33" height="7.33" fill="#FF6B35"/>
  <rect x="139.00" y="183.00" width="7.33" height="7.33" fill="#FF6B35"/>
  <rect x="153.67" y="183.00" width="7.33" height="7.33" fill="#FF6B35"/>
  <rect x="161.00" y="183.00" width="7.33" height="7.33" fill="#FF6B35"/>
  <rect x="168.33" y="183.00" width="7.33" height="7.33" fill="#FF6B35"/>
  <rect x="183.00" y="183.00" width="7.33" height="7.33" fill="#FF6B35"/>
  <rect x="197.67" y="183.00" width="7.33" height="7.33" fill="#FF6B35"/>
  <rect x="212.33" y="183.00" width="7.33" height="7.33" fill="#FF6B35"/>
  <rect x="219.67" y="183.00" width="7.33" height="7.33" fill="#FF6B35"/>
  <rect x="227.00" y="183.00" width="7.33" height="7.33" fill="#FF6B35"/>
  <rect x="21.67" y="190.33" width="7.33" height="7.33" fill="#FF6B35"/>
  <rect x="65.67" y="190.33" width="7.33" height="7.33" fill="#FF6B35"/>
  <rect x="80.33" y="190.33" width="7.33" height="7.33" fill="#FF6B35"/>
  <rect x="102.33" y="190.33" width="7.33" height="7.33" fill="#FF6B35"/>
  <rect x="109.67" y="190.33" width="7.33" height="7.33" fill="#FF6B35"/>
  <rect x="117.00" y="190.33" width="7.33" height="7.33" fill="#FF6B35"/>
  <rect x="124.33" y="190.33" width="7.33" height="7.33" fill="#FF6B35"/>
  <rect x="131.67" y="190.33" width="7.33" height="7.33" fill="#FF6B35"/>
  <rect x="146.33" y="190.33" width="7.33" height="7.33" fill="#FF6B35"/>
  <rect x="168.33" y="190.33" width="7.33" height="7.33" fill="#FF6B35"/>
  <rect x="197.67" y="190.33" width="7.33" height="7.33" fill="#FF6B35"/>
  <rect x="227.00" y="190.33" width="7.33" height="7.33" fill="#FF6B35"/>
  <rect x="21.67" y="197.67" width="7.33" height="7.33" fill="#FF6B35"/>
  <rect x="36.33" y="197.67" width="7.33" height="7.33" fill="#FF6B35"/>
  <rect x="43.67" y="197.67" width="7.33" height="7.33" fill="#FF6B35"/>
  <rect x="51.00" y="197.67" width="7.33" height="7.33" fill="#FF6B35"/>
  <rect x="65.67" y="197.67" width="7.33" height="7.33" fill="#FF6B35"/>
  <rect x="80.33" y="197.67" width="7.33" height="7.33" fill="#FF6B35"/>
  <rect x="87.67" y="197.67" width="7.33" height="7.33" fill="#FF6B35"/>
  <rect x="95.00" y="197.67" width="7.33" height="7.33" fill="#FF6B35"/>
  <rect x="102.33" y="197.67" width="7.33" height="7.33" fill="#FF6B35"/>
  <rect x="117.00" y="197.67" width="7.33" height="7.33" fill="#FF6B35"/>
  <rect x="146.33" y="197.67" width="7.33" height="7.33" fill="#FF6B35"/>
  <rect x="153.67" y="197.67" width="7.33" height="7.33" fill="#FF6B35"/>
  <rect x="168.33" y="197.67" width="7.33" height="7.33" fill="#FF6B35"/>
  <rect x="175.67" y="197.67" width="7.33" height="7.33" fill="#FF6B35"/>
  <rect x="183.00" y="197.67" width="7.33" height="7.33" fill="#FF6B35"/>
  <rect x="190.33" y="197.67" width="7.33" height="7.33" fill="#FF6B35"/>
  <rect x="197.67" y="197.67" width="7.33" height="7.33" fill="#FF6B35"/>
  <rect x="205.00" y="197.67" width="7.33" height="7.33" fill="#FF6B35"/>
  <rect x="227.00" y="197.67" width="7.33" height="7.33" fill="#FF6B35"/>
  <rect x="21.67" y="205.00" width="7.33" height="7.33" fill="#FF6B35"/>
  <rect x="36.33" y="205.00" width="7.33" height="7.33" fill="#FF6B35"/>
  <rect x="43.67" y="205.00" width="7.33" height="7.33" fill="#FF6B35"/>
  <rect x="51.00" y="205.00" width="7.33" height="7.33" fill="#FF6B35"/>
  <rect x="65.67" y="205.00" width="7.33" height="7.33" fill="#FF6B35"/>
  <rect x="95.00" y="205.00" width="7.33" height="7.33" fill="#FF6B35"/>
  <rect x="102.33" y="205.00" width="7.33" height="7.33" fill="#FF6B35"/>
  <rect x="109.67" y="205.00" width="7.33" height="7.33" fill="#FF6B35"/>
  <rect x="139.00" y="205.00" width="7.33" height="7.33" fill="#FF6B35"/>
  <rect x="146.33" y="205.00" width="7.33" height="7.33" fill="#FF6B35"/>
  <rect x="168.33" y="205.00" width="7.33" height="7.33" fill="#FF6B35"/>
  <rect x="175.67" y="205.00" width="7.33" height="7.33" fill="#FF6B35"/>
  <rect x="197.67" y="205.00" width="7.33" height="7.33" fill="#FF6B35"/>
  <rect x="212.33" y="205.00" width="7.33" height="7.33" fill="#FF6B35"/>
  <rect x="21.67" y="212.33" width="7.33" height="7.33" fill="#FF6B35"/>
  <rect x="36.33" y="212.33" width="7.33" height="7.33" fill="#FF6B35"/>
  <rect x="43.67" y="212.33" width="7.33" height="7.33" fill="#FF6B35"/>
  <rect x="51.00" y="212.33" width="7.33" height="7.33" fill="#FF6B35"/>
  <rect x="65.67" y="212.33" width="7.33" height="7.33" fill="#FF6B35"/>
  <rect x="80.33" y="212.33" width="7.33" height="7.33" fill="#FF6B35"/>
  <rect x="87.67" y="212.33" width="7.33" height="7.33" fill="#FF6B35"/>
  <rect x="102.33" y="212.33" width="7.33" height="7.33" fill="#FF6B35"/>
  <rect x="117.00" y="212.33" width="7.33" height="7.33" fill="#FF6B35"/>
  <rect x="131.67" y="212.33" width="7.33" height="7.33" fill="#FF6B35"/>
  <rect x="146.33" y="212.33" width="7.33" height="7.33" fill="#FF6B35"/>
  <rect x="161.00" y="212.33" width="7.33" height="7.33" fill="#FF6B35"/>
  <rect x="190.33" y="212.33" width="7.33" height="7.33" fill="#FF6B35"/>
  <rect x="197.67" y="212.33" width="7.33" height="7.33" fill="#FF6B35"/>
  <rect x="227.00" y="212.33" width="7.33" height="7.33" fill="#FF6B35"/>
  <rect x="21.67" y="219.67" width="7.33" height="7.33" fill="#FF6B35"/>
  <rect x="65.67" y="219.67" width="7.33" height="7.33" fill="#FF6B35"/>
  <rect x="95.00" y="219.67" width="7.33" height="7.33" fill="#FF6B35"/>
  <rect x="124.33" y="219.67" width="7.33" height="7.33" fill="#FF6B35"/>
  <rect x="131.67" y="219.67" width="7.33" height="7.33" fill="#FF6B35"/>
  <rect x="139.00" y="219.67" width="7.33" height="7.33" fill="#FF6B35"/>
  <rect x="146.33" y="219.67" width="7.33" height="7.33" fill="#FF6B35"/>
  <rect x="153.67" y="219.67" width="7.33" height="7.33" fill="#FF6B35"/>
  <rect x="161.00" y="219.67" width="7.33" height="7.33" fill="#FF6B35"/>
  <rect x="183.00" y="219.67" width="7.33" height="7.33" fill="#FF6B35"/>
  <rect x="190.33" y="219.67" width="7.33" height="7.33" fill="#FF6B35"/>
  <rect x="219.67" y="219.67" width="7.33" height="7.33" fill="#FF6B35"/>
  <rect x="21.67" y="227.00" width="7.33" height="7.33" fill="#FF6B35"/>
  <rect x="29.00" y="227.00" width="7.33" height="7.33" fill="#FF6B35"/>
  <rect x="36.33" y="227.00" width="7.33" height="7.33" fill="#FF6B35"/>
  <rect x="43.67" y="227.00" width="7.33" height="7.33" fill="#FF6B35"/>
  <rect x="51.00" y="227.00" width="7.33" height="7.33" fill="#FF6B35"/>
  <rect x="58.33" y="227.00" width="7.33" height="7.33" fill="#FF6B35"/>
  <rect x="65.67" y="227.00" width="7.33" height="7.33" fill="#FF6B35"/>
  <rect x="95.00" y="227.00" width="7.33" height="7.33" fill="#FF6B35"/>
  <rect x="109.67" y="227.00" width="7.33" height="7.33" fill="#FF6B35"/>
  <rect x="124.33" y="227.00" width="7.33" height="7.33" fill="#FF6B35"/>
  <rect x="131.67" y="227.00" width="7.33" height="7.33" fill="#FF6B35"/>
  <rect x="146.33" y="227.00" width="7.33" height="7.33" fill="#FF6B35"/>
  <rect x="161.00" y="227.00" width="7.33" height="7.33" fill="#FF6B35"/>
  <rect x="197.67" y="227.00" width="7.33" height="7.33" fill="#FF6B35"/>
  <rect x="219.67" y="227.00" width="7.33" height="7.33" fill="#FF6B35"/>
  <rect x="227.00" y="227.00" width="7.33" height="7.33" fill="#FF6B35"/>
</svg>
