<svg width="256" height="256" viewBox="0 0 256 256" xmlns="http://www.w3.org/2000/svg" role="img" aria-label="Satsuma — https://satsuma.one">
  <rect width="256" height="256" rx="40" fill="#0A0A0B"/>
  <rect x="15.52" y="15.52" width="8.36" height="8.36" fill="#FF6B35"/>
  <rect x="23.27" y="15.52" width="8.36" height="8.36" fill="#FF6B35"/>
  <rect x="31.03" y="15.52" width="8.36" height="8.36" fill="#FF6B35"/>
  <rect x="38.79" y="15.52" width="8.36" height="8.36" fill="#FF6B35"/>
  <rect x="46.55" y="15.52" width="8.36" height="8.36" fill="#FF6B35"/>
  <rect x="54.30" y="15.52" width="8.36" height="8.36" fill="#FF6B35"/>
  <rect x="62.06" y="15.52" width="8.36" height="8.36" fill="#FF6B35"/>
  <rect x="77.58" y="15.52" width="8.36" height="8.36" fill="#FF6B35"/>
  <rect x="85.33" y="15.52" width="8.36" height="8.36" fill="#FF6B35"/>
  <rect x="93.09" y="15.52" width="8.36" height="8.36" fill="#FF6B35"/>
  <rect x="100.85" y="15.52" width="8.36" height="8.36" fill="#FF6B35"/>
  <rect x="108.61" y="15.52" width="8.36" height="8.36" fill="#FF6B35"/>
  <rect x="131.88" y="15.52" width="8.36" height="8.36" fill="#FF6B35"/>
  <rect x="170.67" y="15.52" width="8.36" height="8.36" fill="#FF6B35"/>
  <rect x="186.18" y="15.52" width="8.36" height="8.36" fill="#FF6B35"/>
  <rect x="193.94" y="15.52" width="8.36" height="8.36" fill="#FF6B35"/>
  <rect x="201.70" y="15.52" width="8.36" height="8.36" fill="#FF6B35"/>
  <rect x="209.45" y="15.52" width="8.36" height="8.36" fill="#FF6B35"/>
  <rect x="217.21" y="15.52" width="8.36" height="8.36" fill="#FF6B35"/>
  <rect x="224.97" y="15.52" width="8.36" height="8.36" fill="#FF6B35"/>
  <rect x="232.73" y="15.52" width="8.36" height="8.36" fill="#FF6B35"/>
  <rect x="15.52" y="23.27" width="8.36" height="8.36" fill="#FF6B35"/>
  <rect x="62.06" y="23.27" width="8.36" height="8.36" fill="#FF6B35"/>
  <rect x="108.61" y="23.27" width="8.36" height="8.36" fill="#FF6B35"/>
  <rect x="124.12" y="23.27" width="8.36" height="8.36" fill="#FF6B35"/>
  <rect x="139.64" y="23.27" width="8.36" height="8.36" fill="#FF6B35"/>
  <rect x="147.39" y="23.27" width="8.36" height="8.36" fill="#FF6B35"/>
  <rect x="155.15" y="23.27" width="8.36" height="8.36" fill="#FF6B35"/>
  <rect x="162.91" y="23.27" width="8.36" height="8.36" fill="#FF6B35"/>
  <rect x="170.67" y="23.27" width="8.36" height="8.36" fill="#FF6B35"/>
  <rect x="186.18" y="23.27" width="8.36" height="8.36" fill="#FF6B35"/>
  <rect x="232.73" y="23.27" width="8.36" height="8.36" fill="#FF6B35"/>
  <rect x="15.52" y="31.03" width="8.36" height="8.36" fill="#FF6B35"/>
  <rect x="31.03" y="31.03" width="8.36" height="8.36" fill="#FF6B35"/>
  <rect x="38.79" y="31.03" width="8.36" height="8.36" fill="#FF6B35"/>
  <rect x="46.55" y="31.03" width="8.36" height="8.36" fill="#FF6B35"/>
  <rect x="62.06" y="31.03" width="8.36" height="8.36" fill="#FF6B35"/>
  <rect x="124.12" y="31.03" width="8.36" height="8.36" fill="#FF6B35"/>
  <rect x="131.88" y="31.03" width="8.36" height="8.36" fill="#FF6B35"/>
  <rect x="139.64" y="31.03" width="8.36" height="8.36" fill="#FF6B35"/>
  <rect x="155.15" y="31.03" width="8.36" height="8.36" fill="#FF6B35"/>
  <rect x="170.67" y="31.03" width="8.36" height="8.36" fill="#FF6B35"/>
  <rect x="186.18" y="31.03" width="8.36" height="8.36" fill="#FF6B35"/>
  <rect x="201.70" y="31.03" width="8.36" height="8.36" fill="#FF6B35"/>
  <rect x="209.45" y="31.03" width="8.36" height="8.36" fill="#FF6B35"/>
  <rect x="217.21" y="31.03" width="8.36" height="8.36" fill="#FF6B35"/>
  <rect x="232.73" y="31.03" width="8.36" height="8.36" fill="#FF6B35"/>
  <rect x="15.52" y="38.79" width="8.36" height="8.36" fill="#FF6B35"/>
  <rect x="31.03" y="38.79" width="8.36" height="8.36" fill="#FF6B35"/>
  <rect x="38.79" y="38.79" width="8.36" height="8.36" fill="#FF6B35"/>
  <rect x="46.55" y="38.79" width="8.36" height="8.36" fill="#FF6B35"/>
  <rect x="62.06" y="38.79" width="8.36" height="8.36" fill="#FF6B35"/>
  <rect x="77.58" y="38.79" width="8.36" height="8.36" fill="#FF6B35"/>
  <rect x="85.33" y="38.79" width="8.36" height="8.36" fill="#FF6B35"/>
  <rect x="100.85" y="38.79" width="8.36" height="8.36" fill="#FF6B35"/>
  <rect x="124.12" y="38.79" width="8.36" height="8.36" fill="#FF6B35"/>
  <rect x="131.88" y="38.79" width="8.36" height="8.36" fill="#FF6B35"/>
  <rect x="139.64" y="38.79" width="8.36" height="8.36" fill="#FF6B35"/>
  <rect x="155.15" y="38.79" width="8.36" height="8.36" fill="#FF6B35"/>
  <rect x="162.91" y="38.79" width="8.36" height="8.36" fill="#FF6B35"/>
  <rect x="170.67" y="38.79" width="8.36" height="8.36" fill="#FF6B35"/>
  <rect x="186.18" y="38.79" width="8.36" height="8.36" fill="#FF6B35"/>
  <rect x="201.70" y="38.79" width="8.36" height="8.36" fill="#FF6B35"/>
  <rect x="209.45" y="38.79" width="8.36" height="8.36" fill="#FF6B35"/>
  <rect x="217.21" y="38.79" width="8.36" height="8.36" fill="#FF6B35"/>
  <rect x="232.73" y="38.79" width="8.36" height="8.36" fill="#FF6B35"/>
  <rect x="15.52" y="46.55" width="8.36" height="8.36" fill="#FF6B35"/>
  <rect x="31.03" y="46.55" width="8.36" height="8.36" fill="#FF6B35"/>
  <rect x="38.79" y="46.55" width="8.36" height="8.36" fill="#FF6B35"/>
  <rect x="46.55" y="46.55" width="8.36" height="8.36" fill="#FF6B35"/>
  <rect x="62.06" y="46.55" width="8.36" height="8.36" fill="#FF6B35"/>
  <rect x="85.33" y="46.55" width="8.36" height="8.36" fill="#FF6B35"/>
  <rect x="100.85" y="46.55" width="8.36" height="8.36" fill="#FF6B35"/>
  <rect x="116.36" y="46.55" width="8.36" height="8.36" fill="#FF6B35"/>
  <rect x="124.12" y="46.55" width="8.36" height="8.36" fill="#FF6B35"/>
  <rect x="147.39" y="46.55" width="8.36" height="8.36" fill="#FF6B35"/>
  <rect x="162.91" y="46.55" width="8.36" height="8.36" fill="#FF6B35"/>
  <rect x="186.18" y="46.55" width="8.36" height="8.36" fill="#FF6B35"/>
  <rect x="201.70" y="46.55" width="8.36" height="8.36" fill="#FF6B35"/>
  <rect x="209.45" y="46.55" width="8.36" height="8.36" fill="#FF6B35"/>
  <rect x="217.21" y="46.55" width="8.36" height="8.36" fill="#FF6B35"/>
  <rect x="232.73" y="46.55" width="8.36" height="8.36" fill="#FF6B35"/>
  <rect x="15.52" y="54.30" width="8.36" height="8.36" fill="#FF6B35"/>
  <rect x="62.06" y="54.30" width="8.36" height="8.36" fill="#FF6B35"/>
  <rect x="100.85" y="54.30" width="8.36" height="8.36" fill="#FF6B35"/>
  <rect x="108.61" y="54.30" width="8.36" height="8.36" fill="#FF6B35"/>
  <rect x="116.36" y="54.30" width="8.36" height="8.36" fill="#FF6B35"/>
  <rect x="155.15" y="54.30" width="8.36" height="8.36" fill="#FF6B35"/>
  <rect x="162.91" y="54.30" width="8.36" height="8.36" fill="#FF6B35"/>
  <rect x="170.67" y="54.30" width="8.36" height="8.36" fill="#FF6B35"/>
  <rect x="186.18" y="54.30" width="8.36" height="8.36" fill="#FF6B35"/>
  <rect x="232.73" y="54.30" width="8.36" height="8.36" fill="#FF6B35"/>
  <rect x="15.52" y="62.06" width="8.36" height="8.36" fill="#FF6B35"/>
  <rect x="23.27" y="62.06" width="8.36" height="8.36" fill="#FF6B35"/>
  <rect x="31.03" y="62.06" width="8.36" height="8.36" fill="#FF6B35"/>
  <rect x="38.79" y="62.06" width="8.36" height="8.36" fill="#FF6B35"/>
  <rect x="46.55" y="62.06" width="8.36" height="8.36" fill="#FF6B35"/>
  <rect x="54.30" y="62.06" width="8.36" height="8.36" fill="#FF6B35"/>
  <rect x="62.06" y="62.06" width="8.36" height="8.36" fill="#FF6B35"/>
  <rect x="77.58" y="62.06" width="8.36" height="8.36" fill="#FF6B35"/>
  <rect x="93.09" y="62.06" width="8.36" height="8.36" fill="#FF6B35"/>
  <rect x="108.61" y="62.06" width="8.36" height="8.36" fill="#FF6B35"/>
  <rect x="124.12" y="62.06" width="8.36" height="8.36" fill="#FF6B35"/>
  <rect x="139.64" y="62.06" width="8.36" height="8.36" fill="#FF6B35"/>
  <rect x="155.15" y="62.06" width="8.36" height="8.36" fill="#FF6B35"/>
  <rect x="170.67" y="62.06" width="8.36" height="8.36" fill="#FF6B35"/>
  <rect x="186.18" y="62.06" width="8.36" height="8.36" fill="#FF6B35"/>
  <rect x="193.94" y="62.06" width="8.36" height="8.36" fill="#FF6B35"/>
  <rect x="201.70" y="62.06" width="8.36" height="8.36" fill="#FF6B35"/>
  <rect x="209.45" y="62.06" width="8.36" height="8.36" fill="#FF6B35"/>
  <rect x="217.21" y="62.06" width="8.36" height="8.36" fill="#FF6B35"/>
  <rect x="224.97" y="62.06" width="8.36" height="8.36" fill="#FF6B35"/>
  <rect x="232.73" y="62.06" width="8.36" height="8.36" fill="#FF6B35"/>
  <rect x="100.85" y="69.82" width="8.36" height="8.36" fill="#FF6B35"/>
  <rect x="124.12" y="69.82" width="8.36" height="8.36" fill="#FF6B35"/>
  <rect x="131.88" y="69.82" width="8.36" height="8.36" fill="#FF6B35"/>
  <rect x="139.64" y="69.82" width="8.36" height="8.36" fill="#FF6B35"/>
  <rect x="162.91" y="69.82" width="8.36" height="8.36" fill="#FF6B35"/>
  <rect x="31.03" y="77.58" width="8.36" height="8.36" fill="#FF6B35"/>
  <rect x="46.55" y="77.58" width="8.36" height="8.36" fill="#FF6B35"/>
  <rect x="54.30" y="77.58" width="8.36" height="8.36" fill="#FF6B35"/>
  <rect x="62.06" y="77.58" width="8.36" height="8.36" fill="#FF6B35"/>
  <rect x="77.58" y="77.58" width="8.36" height="8.36" fill="#FF6B35"/>
  <rect x="93.09" y="77.58" width="8.36" height="8.36" fill="#FF6B35"/>
  <rect x="108.61" y="77.58" width="8.36" height="8.36" fill="#FF6B35"/>
  <rect x="116.36" y="77.58" width="8.36" height="8.36" fill="#FF6B35"/>
  <rect x="124.12" y="77.58" width="8.36" height="8.36" fill="#FF6B35"/>
  <rect x="131.88" y="77.58" width="8.36" height="8.36" fill="#FF6B35"/>
  <rect x="139.64" y="77.58" width="8.36" height="8.36" fill="#FF6B35"/>
  <rect x="170.67" y="77.58" width="8.36" height="8.36" fill="#FF6B35"/>
  <rect x="178.42" y="77.58" width="8.36" height="8.36" fill="#FF6B35"/>
  <rect x="209.45" y="77.58" width="8.36" height="8.36" fill="#FF6B35"/>
  <rect x="232.73" y="77.58" width="8.36" height="8.36" fill="#FF6B35"/>
  <rect x="31.03" y="85.33" width="8.36" height="8.36" fill="#FF6B35"/>
  <rect x="46.55" y="85.33" width="8.36" height="8.36" fill="#FF6B35"/>
  <rect x="69.82" y="85.33" width="8.36" height="8.36" fill="#FF6B35"/>
  <rect x="77.58" y="85.33" width="8.36" height="8.36" fill="#FF6B35"/>
  <rect x="85.33" y="85.33" width="8.36" height="8.36" fill="#FF6B35"/>
  <rect x="93.09" y="85.33" width="8.36" height="8.36" fill="#FF6B35"/>
  <rect x="108.61" y="85.33" width="8.36" height="8.36" fill="#FF6B35"/>
  <rect x="116.36" y="85.33" width="8.36" height="8.36" fill="#FF6B35"/>
  <rect x="124.12" y="85.33" width="8.36" height="8.36" fill="#FF6B35"/>
  <rect x="131.88" y="85.33" width="8.36" height="8.36" fill="#FF6B35"/>
  <rect x="139.64" y="85.33" width="8.36" height="8.36" fill="#FF6B35"/>
  <rect x="147.39" y="85.33" width="8.36" height="8.36" fill="#FF6B35"/>
  <rect x="162.91" y="85.33" width="8.36" height="8.36" fill="#FF6B35"/>
  <rect x="170.67" y="85.33" width="8.36" height="8.36" fill="#FF6B35"/>
  <rect x="178.42" y="85.33" width="8.36" height="8.36" fill="#FF6B35"/>
  <rect x="186.18" y="85.33" width="8.36" height="8.36" fill="#FF6B35"/>
  <rect x="217.21" y="85.33" width="8.36" height="8.36" fill="#FF6B35"/>
  <rect x="232.73" y="85.33" width="8.36" height="8.36" fill="#FF6B35"/>
  <rect x="15.52" y="93.09" width="8.36" height="8.36" fill="#FF6B35"/>
  <rect x="46.55" y="93.09" width="8.36" height="8.36" fill="#FF6B35"/>
  <rect x="62.06" y="93.09" width="8.36" height="8.36" fill="#FF6B35"/>
  <rect x="93.09" y="93.09" width="8.36" height="8.36" fill="#FF6B35"/>
  <rect x="108.61" y="93.09" width="8.36" height="8.36" fill="#FF6B35"/>
  <rect x="139.64" y="93.09" width="8.36" height="8.36" fill="#FF6B35"/>
  <rect x="162.91" y="93.09" width="8.36" height="8.36" fill="#FF6B35"/>
  <rect x="170.67" y="93.09" width="8.36" height="8.36" fill="#FF6B35"/>
  <rect x="209.45" y="93.09" width="8.36" height="8.36" fill="#FF6B35"/>
  <rect x="217.21" y="93.09" width="8.36" height="8.36" fill="#FF6B35"/>
  <rect x="224.97" y="93.09" width="8.36" height="8.36" fill="#FF6B35"/>
  <rect x="232.73" y="93.09" width="8.36" height="8.36" fill="#FF6B35"/>
  <rect x="15.52" y="100.85" width="8.36" height="8.36" fill="#FF6B35"/>
  <rect x="23.27" y="100.85" width="8.36" height="8.36" fill="#FF6B35"/>
  <rect x="46.55" y="100.85" width="8.36" height="8.36" fill="#FF6B35"/>
  <rect x="85.33" y="100.85" width="8.36" height="8.36" fill="#FF6B35"/>
  <rect x="93.09" y="100.85" width="8.36" height="8.36" fill="#FF6B35"/>
  <rect x="131.88" y="100.85" width="8.36" height="8.36" fill="#FF6B35"/>
  <rect x="147.39" y="100.85" width="8.36" height="8.36" fill="#FF6B35"/>
  <rect x="155.15" y="100.85" width="8.36" height="8.36" fill="#FF6B35"/>
  <rect x="170.67" y="100.85" width="8.36" height="8.36" fill="#FF6B35"/>
  <rect x="178.42" y="100.85" width="8.36" height="8.36" fill="#FF6B35"/>
  <rect x="186.18" y="100.85" width="8.36" height="8.36" fill="#FF6B35"/>
  <rect x="201.70" y="100.85" width="8.36" height="8.36" fill="#FF6B35"/>
  <rect x="224.97" y="100.85" width="8.36" height="8.36" fill="#FF6B35"/>
  <rect x="23.27" y="108.61" width="8.36" height="8.36" fill="#FF6B35"/>
  <rect x="38.79" y="108.61" width="8.36" height="8.36" fill="#FF6B35"/>
  <rect x="54.30" y="108.61" width="8.36" height="8.36" fill="#FF6B35"/>
  <rect x="62.06" y="108.61" width="8.36" height="8.36" fill="#FF6B35"/>
  <rect x="93.09" y="108.61" width="8.36" height="8.36" fill="#FF6B35"/>
  <rect x="100.85" y="108.61" width="8.36" height="8.36" fill="#FF6B35"/>
  <rect x="116.36" y="108.61" width="8.36" height="8.36" fill="#FF6B35"/>
  <rect x="124.12" y="108.61" width="8.36" height="8.36" fill="#FF6B35"/>
  <rect x="131.88" y="108.61" width="8.36" height="8.36" fill="#FF6B35"/>
  <rect x="155.15" y="108.61" width="8.36" height="8.36" fill="#FF6B35"/>
  <rect x="162.91" y="108.61" width="8.36" height="8.36" fill="#FF6B35"/>
  <rect x="170.67" y="108.61" width="8.36" height="8.36" fill="#FF6B35"/>
  <rect x="186.18" y="108.61" width="8.36" height="8.36" fill="#FF6B35"/>
  <rect x="193.94" y="108.61" width="8.36" height="8.36" fill="#FF6B35"/>
  <rect x="31.03" y="116.36" width="8.36" height="8.36" fill="#FF6B35"/>
  <rect x="38.79" y="116.36" width="8.36" height="8.36" fill="#FF6B35"/>
  <rect x="46.55" y="116.36" width="8.36" height="8.36" fill="#FF6B35"/>
  <rect x="54.30" y="116.36" width="8.36" height="8.36" fill="#FF6B35"/>
  <rect x="77.58" y="116.36" width="8.36" height="8.36" fill="#FF6B35"/>
  <rect x="93.09" y="116.36" width="8.36" height="8.36" fill="#FF6B35"/>
  <rect x="100.85" y="116.36" width="8.36" height="8.36" fill="#FF6B35"/>
  <rect x="108.61" y="116.36" width="8.36" height="8.36" fill="#FF6B35"/>
  <rect x="131.88" y="116.36" width="8.36" height="8.36" fill="#FF6B35"/>
  <rect x="139.64" y="116.36" width="8.36" height="8.36" fill="#FF6B35"/>
  <rect x="147.39" y="116.36" width="8.36" height="8.36" fill="#FF6B35"/>
  <rect x="170.67" y="116.36" width="8.36" height="8.36" fill="#FF6B35"/>
  <rect x="178.42" y="116.36" width="8.36" height="8.36" fill="#FF6B35"/>
  <rect x="186.18" y="116.36" width="8.36" height="8.36" fill="#FF6B35"/>
  <rect x="193.94" y="116.36" width="8.36" height="8.36" fill="#FF6B35"/>
  <rect x="224.97" y="116.36" width="8.36" height="8.36" fill="#FF6B35"/>
  <rect x="232.73" y="116.36" width="8.36" height="8.36" fill="#FF6B35"/>
  <rect x="23.27" y="124.12" width="8.36" height="8.36" fill="#FF6B35"/>
  <rect x="62.06" y="124.12" width="8.36" height="8.36" fill="#FF6B35"/>
  <rect x="69.82" y="124.12" width="8.36" height="8.36" fill="#FF6B35"/>
  <rect x="77.58" y="124.12" width="8.36" height="8.36" fill="#FF6B35"/>
  <rect x="85.33" y="124.12" width="8.36" height="8.36" fill="#FF6B35"/>
  <rect x="93.09" y="124.12" width="8.36" height="8.36" fill="#FF6B35"/>
  <rect x="124.12" y="124.12" width="8.36" height="8.36" fill="#FF6B35"/>
  <rect x="139.64" y="124.12" width="8.36" height="8.36" fill="#FF6B35"/>
  <rect x="178.42" y="124.12" width="8.36" height="8.36" fill="#FF6B35"/>
  <rect x="186.18" y="124.12" width="8.36" height="8.36" fill="#FF6B35"/>
  <rect x="193.94" y="124.12" width="8.36" height="8.36" fill="#FF6B35"/>
  <rect x="217.21" y="124.12" width="8.36" height="8.36" fill="#FF6B35"/>
  <rect x="224.97" y="124.12" width="8.36" height="8.36" fill="#FF6B35"/>
  <rect x="232.73" y="124.12" width="8.36" height="8.36" fill="#FF6B35"/>
  <rect x="31.03" y="131.88" width="8.36" height="8.36" fill="#FF6B35"/>
  <rect x="38.79" y="131.88" width="8.36" height="8.36" fill="#FF6B35"/>
  <rect x="54.30" y="131.88" width="8.36" height="8.36" fill="#FF6B35"/>
  <rect x="77.58" y="131.88" width="8.36" height="8.36" fill="#FF6B35"/>
  <rect x="85.33" y="131.88" width="8.36" height="8.36" fill="#FF6B35"/>
  <rect x="100.85" y="131.88" width="8.36" height="8.36" fill="#FF6B35"/>
  <rect x="116.36" y="131.88" width="8.36" height="8.36" fill="#FF6B35"/>
  <rect x="139.64" y="131.88" width="8.36" height="8.36" fill="#FF6B35"/>
  <rect x="147.39" y="131.88" width="8.36" height="8.36" fill="#FF6B35"/>
  <rect x="155.15" y="131.88" width="8.36" height="8.36" fill="#FF6B35"/>
  <rect x="193.94" y="131.88" width="8.36" height="8.36" fill="#FF6B35"/>
  <rect x="23.27" y="139.64" width="8.36" height="8.36" fill="#FF6B35"/>
  <rect x="38.79" y="139.64" width="8.36" height="8.36" fill="#FF6B35"/>
  <rect x="46.55" y="139.64" width="8.36" height="8.36" fill="#FF6B35"/>
  <rect x="54.30" y="139.64" width="8.36" height="8.36" fill="#FF6B35"/>
  <rect x="62.06" y="139.64" width="8.36" height="8.36" fill="#FF6B35"/>
  <rect x="77.58" y="139.64" width="8.36" height="8.36" fill="#FF6B35"/>
  <rect x="85.33" y="139.64" width="8.36" height="8.36" fill="#FF6B35"/>
  <rect x="93.09" y="139.64" width="8.36" height="8.36" fill="#FF6B35"/>
  <rect x="100.85" y="139.64" width="8.36" height="8.36" fill="#FF6B35"/>
  <rect x="116.36" y="139.64" width="8.36" height="8.36" fill="#FF6B35"/>
  <rect x="131.88" y="139.64" width="8.36" height="8.36" fill="#FF6B35"/>
  <rect x="139.64" y="139.64" width="8.36" height="8.36" fill="#FF6B35"/>
  <rect x="155.15" y="139.64" width="8.36" height="8.36" fill="#FF6B35"/>
  <rect x="186.18" y="139.64" width="8.36" height="8.36" fill="#FF6B35"/>
  <rect x="209.45" y="139.64" width="8.36" height="8.36" fill="#FF6B35"/>
  <rect x="224.97" y="139.64" width="8.36" height="8.36" fill="#FF6B35"/>
  <rect x="232.73" y="139.64" width="8.36" height="8.36" fill="#FF6B35"/>
  <rect x="38.79" y="147.39" width="8.36" height="8.36" fill="#FF6B35"/>
  <rect x="46.55" y="147.39" width="8.36" height="8.36" fill="#FF6B35"/>
  <rect x="54.30" y="147.39" width="8.36" height="8.36" fill="#FF6B35"/>
  <rect x="77.58" y="147.39" width="8.36" height="8.36" fill="#FF6B35"/>
  <rect x="100.85" y="147.39" width="8.36" height="8.36" fill="#FF6B35"/>
  <rect x="131.88" y="147.39" width="8.36" height="8.36" fill="#FF6B35"/>
  <rect x="139.64" y="147.39" width="8.36" height="8.36" fill="#FF6B35"/>
  <rect x="147.39" y="147.39" width="8.36" height="8.36" fill="#FF6B35"/>
  <rect x="162.91" y="147.39" width="8.36" height="8.36" fill="#FF6B35"/>
  <rect x="178.42" y="147.39" width="8.36" height="8.36" fill="#FF6B35"/>
  <rect x="209.45" y="147.39" width="8.36" height="8.36" fill="#FF6B35"/>
  <rect x="224.97" y="147.39" width="8.36" height="8.36" fill="#FF6B35"/>
  <rect x="232.73" y="147.39" width="8.36" height="8.36" fill="#FF6B35"/>
  <rect x="15.52" y="155.15" width="8.36" height="8.36" fill="#FF6B35"/>
  <rect x="38.79" y="155.15" width="8.36" height="8.36" fill="#FF6B35"/>
  <rect x="46.55" y="155.15" width="8.36" height="8.36" fill="#FF6B35"/>
  <rect x="54.30" y="155.15" width="8.36" height="8.36" fill="#FF6B35"/>
  <rect x="62.06" y="155.15" width="8.36" height="8.36" fill="#FF6B35"/>
  <rect x="69.82" y="155.15" width="8.36" height="8.36" fill="#FF6B35"/>
  <rect x="85.33" y="155.15" width="8.36" height="8.36" fill="#FF6B35"/>
  <rect x="93.09" y="155.15" width="8.36" height="8.36" fill="#FF6B35"/>
  <rect x="100.85" y="155.15" width="8.36" height="8.36" fill="#FF6B35"/>
  <rect x="116.36" y="155.15" width="8.36" height="8.36" fill="#FF6B35"/>
  <rect x="139.64" y="155.15" width="8.36" height="8.36" fill="#FF6B35"/>
  <rect x="155.15" y="155.15" width="8.36" height="8.36" fill="#FF6B35"/>
  <rect x="178.42" y="155.15" width="8.36" height="8.36" fill="#FF6B35"/>
  <rect x="193.94" y="155.15" width="8.36" height="8.36" fill="#FF6B35"/>
  <rect x="209.45" y="155.15" width="8.36" height="8.36" fill="#FF6B35"/>
  <rect x="217.21" y="155.15" width="8.36" height="8.36" fill="#FF6B35"/>
  <rect x="224.97" y="155.15" width="8.36" height="8.36" fill="#FF6B35"/>
  <rect x="232.73" y="155.15" width="8.36" height="8.36" fill="#FF6B35"/>
  <rect x="23.27" y="162.91" width="8.36" height="8.36" fill="#FF6B35"/>
  <rect x="31.03" y="162.91" width="8.36" height="8.36" fill="#FF6B35"/>
  <rect x="38.79" y="162.91" width="8.36" height="8.36" fill="#FF6B35"/>
  <rect x="54.30" y="162.91" width="8.36" height="8.36" fill="#FF6B35"/>
  <rect x="69.82" y="162.91" width="8.36" height="8.36" fill="#FF6B35"/>
  <rect x="85.33" y="162.91" width="8.36" height="8.36" fill="#FF6B35"/>
  <rect x="124.12" y="162.91" width="8.36" height="8.36" fill="#FF6B35"/>
  <rect x="155.15" y="162.91" width="8.36" height="8.36" fill="#FF6B35"/>
  <rect x="162.91" y="162.91" width="8.36" height="8.36" fill="#FF6B35"/>
  <rect x="186.18" y="162.91" width="8.36" height="8.36" fill="#FF6B35"/>
  <rect x="201.70" y="162.91" width="8.36" height="8.36" fill="#FF6B35"/>
  <rect x="209.45" y="162.91" width="8.36" height="8.36" fill="#FF6B35"/>
  <rect x="232.73" y="162.91" width="8.36" height="8.36" fill="#FF6B35"/>
  <rect x="15.52" y="170.67" width="8.36" height="8.36" fill="#FF6B35"/>
  <rect x="54.30" y="170.67" width="8.36" height="8.36" fill="#FF6B35"/>
  <rect x="62.06" y="170.67" width="8.36" height="8.36" fill="#FF6B35"/>
  <rect x="77.58" y="170.67" width="8.36" height="8.36" fill="#FF6B35"/>
  <rect x="85.33" y="170.67" width="8.36" height="8.36" fill="#FF6B35"/>
  <rect x="131.88" y="170.67" width="8.36" height="8.36" fill="#FF6B35"/>
  <rect x="139.64" y="170.67" width="8.36" height="8.36" fill="#FF6B35"/>
  <rect x="170.67" y="170.67" width="8.36" height="8.36" fill="#FF6B35"/>
  <rect x="178.42" y="170.67" width="8.36" height="8.36" fill="#FF6B35"/>
  <rect x="186.18" y="170.67" width="8.36" height="8.36" fill="#FF6B35"/>
  <rect x="193.94" y="170.67" width="8.36" height="8.36" fill="#FF6B35"/>
  <rect x="201.70" y="170.67" width="8.36" height="8.36" fill="#FF6B35"/>
  <rect x="232.73" y="170.67" width="8.36" height="8.36" fill="#FF6B35"/>
  <rect x="77.58" y="178.42" width="8.36" height="8.36" fill="#FF6B35"/>
  <rect x="93.09" y="178.42" width="8.36" height="8.36" fill="#FF6B35"/>
  <rect x="108.61" y="178.42" width="8.36" height="8.36" fill="#FF6B35"/>
  <rect x="139.64" y="178.42" width="8.36" height="8.36" fill="#FF6B35"/>
  <rect x="147.39" y="178.42" width="8.36" height="8.36" fill="#FF6B35"/>
  <rect x="170.67" y="178.42" width="8.36" height="8.36" fill="#FF6B35"/>
  <rect x="201.70" y="178.42" width="8.36" height="8.36" fill="#FF6B35"/>
  <rect x="232.73" y="178.42" width="8.36" height="8.36" fill="#FF6B35"/>
  <rect x="15.52" y="186.18" width="8.36" height="8.36" fill="#FF6B35"/>
  <rect x="23.27" y="186.18" width="8.36" height="8.36" fill="#FF6B35"/>
  <rect x="31.03" y="186.18" width="8.36" height="8.36" fill="#FF6B35"/>
  <rect x="38.79" y="186.18" width="8.36" height="8.36" fill="#FF6B35"/>
  <rect x="46.55" y="186.18" width="8.36" height="8.36" fill="#FF6B35"/>
  <rect x="54.30" y="186.18" width="8.36" height="8.36" fill="#FF6B35"/>
  <rect x="62.06" y="186.18" width="8.36" height="8.36" fill="#FF6B35"/>
  <rect x="85.33" y="186.18" width="8.36" height="8.36" fill="#FF6B35"/>
  <rect x="93.09" y="186.18" width="8.36" height="8.36" fill="#FF6B35"/>
  <rect x="116.36" y="186.18" width="8.36" height="8.36" fill="#FF6B35"/>
  <rect x="124.12" y="186.18" width="8.36" height="8.36" fill="#FF6B35"/>
  <rect x="139.64" y="186.18" width="8.36" height="8.36" fill="#FF6B35"/>
  <rect x="155.15" y="186.18" width="8.36" height="8.36" fill="#FF6B35"/>
  <rect x="162.91" y="186.18" width="8.36" height="8.36" fill="#FF6B35"/>
  <rect x="170.67" y="186.18" width="8.36" height="8.36" fill="#FF6B35"/>
  <rect x="186.18" y="186.18" width="8.36" height="8.36" fill="#FF6B35"/>
  <rect x="201.70" y="186.18" width="8.36" height="8.36" fill="#FF6B35"/>
  <rect x="217.21" y="186.18" width="8.36" height="8.36" fill="#FF6B35"/>
  <rect x="224.97" y="186.18" width="8.36" height="8.36" fill="#FF6B35"/>
  <rect x="232.73" y="186.18" width="8.36" height="8.36" fill="#FF6B35"/>
  <rect x="15.52" y="193.94" width="8.36" height="8.36" fill="#FF6B35"/>
  <rect x="62.06" y="193.94" width="8.36" height="8.36" fill="#FF6B35"/>
  <rect x="77.58" y="193.94" width="8.36" height="8.36" fill="#FF6B35"/>
  <rect x="100.85" y="193.94" width="8.36" height="8.36" fill="#FF6B35"/>
  <rect x="108.61" y="193.94" width="8.36" height="8.36" fill="#FF6B35"/>
  <rect x="116.36" y="193.94" width="8.36" height="8.36" fill="#FF6B35"/>
  <rect x="124.12" y="193.94" width="8.36" height="8.36" fill="#FF6B35"/>
  <rect x="131.88" y="193.94" width="8.36" height="8.36" fill="#FF6B35"/>
  <rect x="147.39" y="193.94" width="8.36" height="8.36" fill="#FF6B35"/>
  <rect x="170.67" y="193.94" width="8.36" height="8.36" fill="#FF6B35"/>
  <rect x="201.70" y="193.94" width="8.36" height="8.36" fill="#FF6B35"/>
  <rect x="232.73" y="193.94" width="8.36" height="8.36" fill="#FF6B35"/>
  <rect x="15.52" y="201.70" width="8.36" height="8.36" fill="#FF6B35"/>
  <rect x="31.03" y="201.70" width="8.36" height="8.36" fill="#FF6B35"/>
  <rect x="38.79" y="201.70" width="8.36" height="8.36" fill="#FF6B35"/>
  <rect x="46.55" y="201.70" width="8.36" height="8.36" fill="#FF6B35"/>
  <rect x="62.06" y="201.70" width="8.36" height="8.36" fill="#FF6B35"/>
  <rect x="77.58" y="201.70" width="8.36" height="8.36" fill="#FF6B35"/>
  <rect x="85.33" y="201.70" width="8.36" height="8.36" fill="#FF6B35"/>
  <rect x="93.09" y="201.70" width="8.36" height="8.36" fill="#FF6B35"/>
  <rect x="100.85" y="201.70" width="8.36" height="8.36" fill="#FF6B35"/>
  <rect x="116.36" y="201.70" width="8.36" height="8.36" fill="#FF6B35"/>
  <rect x="147.39" y="201.70" width="8.36" height="8.36" fill="#FF6B35"/>
  <rect x="155.15" y="201.70" width="8.36" height="8.36" fill="#FF6B35"/>
  <rect x="170.67" y="201.70" width="8.36" height="8.36" fill="#FF6B35"/>
  <rect x="178.42" y="201.70" width="8.36" height="8.36" fill="#FF6B35"/>
  <rect x="186.18" y="201.70" width="8.36" height="8.36" fill="#FF6B35"/>
  <rect x="193.94" y="201.70" width="8.36" height="8.36" fill="#FF6B35"/>
  <rect x="201.70" y="201.70" width="8.36" height="8.36" fill="#FF6B35"/>
  <rect x="209.45" y="201.70" width="8.36" height="8.36" fill="#FF6B35"/>
  <rect x="232.73" y="201.70" width="8.36" height="8.36" fill="#FF6B35"/>
  <rect x="15.52" y="209.45" width="8.36" height="8.36" fill="#FF6B35"/>
  <rect x="31.03" y="209.45" width="8.36" height="8.36" fill="#FF6B35"/>
  <rect x="38.79" y="209.45" width="8.36" height="8.36" fill="#FF6B35"/>
  <rect x="46.55" y="209.45" width="8.36" height="8.36" fill="#FF6B35"/>
  <rect x="62.06" y="209.45" width="8.36" height="8.36" fill="#FF6B35"/>
  <rect x="93.09" y="209.45" width="8.36" height="8.36" fill="#FF6B35"/>
  <rect x="100.85" y="209.45" width="8.36" height="8.36" fill="#FF6B35"/>
  <rect x="108.61" y="209.45" width="8.36" height="8.36" fill="#FF6B35"/>
  <rect x="139.64" y="209.45" width="8.36" height="8.36" fill="#FF6B35"/>
  <rect x="147.39" y="209.45" width="8.36" height="8.36" fill="#FF6B35"/>
  <rect x="170.67" y="209.45" width="8.36" height="8.36" fill="#FF6B35"/>
  <rect x="178.42" y="209.45" width="8.36" height="8.36" fill="#FF6B35"/>
  <rect x="201.70" y="209.45" width="8.36" height="8.36" fill="#FF6B35"/>
  <rect x="217.21" y="209.45" width="8.36" height="8.36" fill="#FF6B35"/>
  <rect x="15.52" y="217.21" width="8.36" height="8.36" fill="#FF6B35"/>
  <rect x="31.03" y="217.21" width="8.36" height="8.36" fill="#FF6B35"/>
  <rect x="38.79" y="217.21" width="8.36" height="8.36" fill="#FF6B35"/>
  <rect x="46.55" y="217.21" width="8.36" height="8.36" fill="#FF6B35"/>
  <rect x="62.06" y="217.21" width="8.36" height="8.36" fill="#FF6B35"/>
  <rect x="77.58" y="217.21" width="8.36" height="8.36" fill="#FF6B35"/>
  <rect x="85.33" y="217.21" width="8.36" height="8.36" fill="#FF6B35"/>
  <rect x="100.85" y="217.21" width="8.36" height="8.36" fill="#FF6B35"/>
  <rect x="116.36" y="217.21" width="8.36" height="8.36" fill="#FF6B35"/>
  <rect x="131.88" y="217.21" width="8.36" height="8.36" fill="#FF6B35"/>
  <rect x="147.39" y="217.21" width="8.36" height="8.36" fill="#FF6B35"/>
  <rect x="162.91" y="217.21" width="8.36" height="8.36" fill="#FF6B35"/>
  <rect x="193.94" y="217.21" width="8.36" height="8.36" fill="#FF6B35"/>
  <rect x="201.70" y="217.21" width="8.36" height="8.36" fill="#FF6B35"/>
  <rect x="232.73" y="217.21" width="8.36" height="8.36" fill="#FF6B35"/>
  <rect x="15.52" y="224.97" width="8.36" height="8.36" fill="#FF6B35"/>
  <rect x="62.06" y="224.97" width="8.36" height="8.36" fill="#FF6B35"/>
  <rect x="93.09" y="224.97" width="8.36" height="8.36" fill="#FF6B35"/>
  <rect x="124.12" y="224.97" width="8.36" height="8.36" fill="#FF6B35"/>
  <rect x="131.88" y="224.97" width="8.36" height="8.36" fill="#FF6B35"/>
  <rect x="139.64" y="224.97" width="8.36" height="8.36" fill="#FF6B35"/>
  <rect x="147.39" y="224.97" width="8.36" height="8.36" fill="#FF6B35"/>
  <rect x="155.15" y="224.97" width="8.36" height="8.36" fill="#FF6B35"/>
  <rect x="162.91" y="224.97" width="8.36" height="8.36" fill="#FF6B35"/>
  <rect x="186.18" y="224.97" width="8.36" height="8.36" fill="#FF6B35"/>
  <rect x="193.94" y="224.97" width="8.36" height="8.36" fill="#FF6B35"/>
  <rect x="224.97" y="224.97" width="8.36" height="8.36" fill="#FF6B35"/>
  <rect x="15.52" y="232.73" width="8.36" height="8.36" fill="#FF6B35"/>
  <rect x="23.27" y="232.73" width="8.36" height="8.36" fill="#FF6B35"/>
  <rect x="31.03" y="232.73" width="8.36" height="8.36" fill="#FF6B35"/>
  <rect x="38.79" y="232.73" width="8.36" height="8.36" fill="#FF6B35"/>
  <rect x="46.55" y="232.73" width="8.36" height="8.36" fill="#FF6B35"/>
  <rect x="54.30" y="232.73" width="8.36" height="8.36" fill="#FF6B35"/>
  <rect x="62.06" y="232.73" width="8.36" height="8.36" fill="#FF6B35"/>
  <rect x="93.09" y="232.73" width="8.36" height="8.36" fill="#FF6B35"/>
  <rect x="108.61" y="232.73" width="8.36" height="8.36" fill="#FF6B35"/>
  <rect x="124.12" y="232.73" width="8.36" height="8.36" fill="#FF6B35"/>
  <rect x="131.88" y="232.73" width="8.36" height="8.36" fill="#FF6B35"/>
  <rect x="147.39" y="232.73" width="8.36" height="8.36" fill="#FF6B35"/>
  <rect x="162.91" y="232.73" width="8.36" height="8.36" fill="#FF6B35"/>
  <rect x="201.70" y="232.73" width="8.36" height="8.36" fill="#FF6B35"/>
  <rect x="224.97" y="232.73" width="8.36" height="8.36" fill="#FF6B35"/>
  <rect x="232.73" y="232.73" width="8.36" height="8.36" fill="#FF6B35"/>
</svg>
