<svg width="256" height="256" viewBox="0 0 256 256" xmlns="http://www.w3.org/2000/svg" role="img" aria-label="Satsuma — https://satsuma.one">
  <rect width="256" height="256" rx="48" fill="#0A0A0B"/>
  <rect x="51.19" y="51.19" width="5.30" height="5.30" fill="#FF6B35"/>
  <rect x="56.49" y="51.19" width="5.30" height="5.30" fill="#FF6B35"/>
  <rect x="61.78" y="51.19" width="5.30" height="5.30" fill="#FF6B35"/>
  <rect x="67.08" y="51.19" width="5.30" height="5.30" fill="#FF6B35"/>
  <rect x="72.38" y="51.19" width="5.30" height="5.30" fill="#FF6B35"/>
  <rect x="77.68" y="51.19" width="5.30" height="5.30" fill="#FF6B35"/>
  <rect x="82.97" y="51.19" width="5.30" height="5.30" fill="#FF6B35"/>
  <rect x="93.57" y="51.19" width="5.30" height="5.30" fill="#FF6B35"/>
  <rect x="98.86" y="51.19" width="5.30" height="5.30" fill="#FF6B35"/>
  <rect x="104.16" y="51.19" width="5.30" height="5.30" fill="#FF6B35"/>
  <rect x="109.46" y="51.19" width="5.30" height="5.30" fill="#FF6B35"/>
  <rect x="114.76" y="51.19" width="5.30" height="5.30" fill="#FF6B35"/>
  <rect x="130.65" y="51.19" width="5.30" height="5.30" fill="#FF6B35"/>
  <rect x="157.14" y="51.19" width="5.30" height="5.30" fill="#FF6B35"/>
  <rect x="167.73" y="51.19" width="5.30" height="5.30" fill="#FF6B35"/>
  <rect x="173.03" y="51.19" width="5.30" height="5.30" fill="#FF6B35"/>
  <rect x="178.32" y="51.19" width="5.30" height="5.30" fill="#FF6B35"/>
  <rect x="183.62" y="51.19" width="5.30" height="5.30" fill="#FF6B35"/>
  <rect x="188.92" y="51.19" width="5.30" height="5.30" fill="#FF6B35"/>
  <rect x="194.22" y="51.19" width="5.30" height="5.30" fill="#FF6B35"/>
  <rect x="199.51" y="51.19" width="5.30" height="5.30" fill="#FF6B35"/>
  <rect x="51.19" y="56.49" width="5.30" height="5.30" fill="#FF6B35"/>
  <rect x="82.97" y="56.49" width="5.30" height="5.30" fill="#FF6B35"/>
  <rect x="114.76" y="56.49" width="5.30" height="5.30" fill="#FF6B35"/>
  <rect x="125.35" y="56.49" width="5.30" height="5.30" fill="#FF6B35"/>
  <rect x="135.95" y="56.49" width="5.30" height="5.30" fill="#FF6B35"/>
  <rect x="141.24" y="56.49" width="5.30" height="5.30" fill="#FF6B35"/>
  <rect x="146.54" y="56.49" width="5.30" height="5.30" fill="#FF6B35"/>
  <rect x="151.84" y="56.49" width="5.30" height="5.30" fill="#FF6B35"/>
  <rect x="157.14" y="56.49" width="5.30" height="5.30" fill="#FF6B35"/>
  <rect x="167.73" y="56.49" width="5.30" height="5.30" fill="#FF6B35"/>
  <rect x="199.51" y="56.49" width="5.30" height="5.30" fill="#FF6B35"/>
  <rect x="51.19" y="61.78" width="5.30" height="5.30" fill="#FF6B35"/>
  <rect x="61.78" y="61.78" width="5.30" height="5.30" fill="#FF6B35"/>
  <rect x="67.08" y="61.78" width="5.30" height="5.30" fill="#FF6B35"/>
  <rect x="72.38" y="61.78" width="5.30" height="5.30" fill="#FF6B35"/>
  <rect x="82.97" y="61.78" width="5.30" height="5.30" fill="#FF6B35"/>
  <rect x="125.35" y="61.78" width="5.30" height="5.30" fill="#FF6B35"/>
  <rect x="130.65" y="61.78" width="5.30" height="5.30" fill="#FF6B35"/>
  <rect x="135.95" y="61.78" width="5.30" height="5.30" fill="#FF6B35"/>
  <rect x="146.54" y="61.78" width="5.30" height="5.30" fill="#FF6B35"/>
  <rect x="157.14" y="61.78" width="5.30" height="5.30" fill="#FF6B35"/>
  <rect x="167.73" y="61.78" width="5.30" height="5.30" fill="#FF6B35"/>
  <rect x="178.32" y="61.78" width="5.30" height="5.30" fill="#FF6B35"/>
  <rect x="183.62" y="61.78" width="5.30" height="5.30" fill="#FF6B35"/>
  <rect x="188.92" y="61.78" width="5.30" height="5.30" fill="#FF6B35"/>
  <rect x="199.51" y="61.78" width="5.30" height="5.30" fill="#FF6B35"/>
  <rect x="51.19" y="67.08" width="5.30" height="5.30" fill="#FF6B35"/>
  <rect x="61.78" y="67.08" width="5.30" height="5.30" fill="#FF6B35"/>
  <rect x="67.08" y="67.08" width="5.30" height="5.30" fill="#FF6B35"/>
  <rect x="72.38" y="67.08" width="5.30" height="5.30" fill="#FF6B35"/>
  <rect x="82.97" y="67.08" width="5.30" height="5.30" fill="#FF6B35"/>
  <rect x="93.57" y="67.08" width="5.30" height="5.30" fill="#FF6B35"/>
  <rect x="98.86" y="67.08" width="5.30" height="5.30" fill="#FF6B35"/>
  <rect x="109.46" y="67.08" width="5.30" height="5.30" fill="#FF6B35"/>
  <rect x="125.35" y="67.08" width="5.30" height="5.30" fill="#FF6B35"/>
  <rect x="130.65" y="67.08" width="5.30" height="5.30" fill="#FF6B35"/>
  <rect x="135.95" y="67.08" width="5.30" height="5.30" fill="#FF6B35"/>
  <rect x="146.54" y="67.08" width="5.30" height="5.30" fill="#FF6B35"/>
  <rect x="151.84" y="67.08" width="5.30" height="5.30" fill="#FF6B35"/>
  <rect x="157.14" y="67.08" width="5.30" height="5.30" fill="#FF6B35"/>
  <rect x="167.73" y="67.08" width="5.30" height="5.30" fill="#FF6B35"/>
  <rect x="178.32" y="67.08" width="5.30" height="5.30" fill="#FF6B35"/>
  <rect x="183.62" y="67.08" width="5.30" height="5.30" fill="#FF6B35"/>
  <rect x="188.92" y="67.08" width="5.30" height="5.30" fill="#FF6B35"/>
  <rect x="199.51" y="67.08" width="5.30" height="5.30" fill="#FF6B35"/>
  <rect x="51.19" y="72.38" width="5.30" height="5.30" fill="#FF6B35"/>
  <rect x="61.78" y="72.38" width="5.30" height="5.30" fill="#FF6B35"/>
  <rect x="67.08" y="72.38" width="5.30" height="5.30" fill="#FF6B35"/>
  <rect x="72.38" y="72.38" width="5.30" height="5.30" fill="#FF6B35"/>
  <rect x="82.97" y="72.38" width="5.30" height="5.30" fill="#FF6B35"/>
  <rect x="98.86" y="72.38" width="5.30" height="5.30" fill="#FF6B35"/>
  <rect x="109.46" y="72.38" width="5.30" height="5.30" fill="#FF6B35"/>
  <rect x="120.05" y="72.38" width="5.30" height="5.30" fill="#FF6B35"/>
  <rect x="125.35" y="72.38" width="5.30" height="5.30" fill="#FF6B35"/>
  <rect x="141.24" y="72.38" width="5.30" height="5.30" fill="#FF6B35"/>
  <rect x="151.84" y="72.38" width="5.30" height="5.30" fill="#FF6B35"/>
  <rect x="167.73" y="72.38" width="5.30" height="5.30" fill="#FF6B35"/>
  <rect x="178.32" y="72.38" width="5.30" height="5.30" fill="#FF6B35"/>
  <rect x="183.62" y="72.38" width="5.30" height="5.30" fill="#FF6B35"/>
  <rect x="188.92" y="72.38" width="5.30" height="5.30" fill="#FF6B35"/>
  <rect x="199.51" y="72.38" width="5.30" height="5.30" fill="#FF6B35"/>
  <rect x="51.19" y="77.68" width="5.30" height="5.30" fill="#FF6B35"/>
  <rect x="82.97" y="77.68" width="5.30" height="5.30" fill="#FF6B35"/>
  <rect x="109.46" y="77.68" width="5.30" height="5.30" fill="#FF6B35"/>
  <rect x="114.76" y="77.68" width="5.30" height="5.30" fill="#FF6B35"/>
  <rect x="120.05" y="77.68" width="5.30" height="5.30" fill="#FF6B35"/>
  <rect x="146.54" y="77.68" width="5.30" height="5.30" fill="#FF6B35"/>
  <rect x="151.84" y="77.68" width="5.30" height="5.30" fill="#FF6B35"/>
  <rect x="157.14" y="77.68" width="5.30" height="5.30" fill="#FF6B35"/>
  <rect x="167.73" y="77.68" width="5.30" height="5.30" fill="#FF6B35"/>
  <rect x="199.51" y="77.68" width="5.30" height="5.30" fill="#FF6B35"/>
  <rect x="51.19" y="82.97" width="5.30" height="5.30" fill="#FF6B35"/>
  <rect x="56.49" y="82.97" width="5.30" height="5.30" fill="#FF6B35"/>
  <rect x="61.78" y="82.97" width="5.30" height="5.30" fill="#FF6B35"/>
  <rect x="67.08" y="82.97" width="5.30" height="5.30" fill="#FF6B35"/>
  <rect x="72.38" y="82.97" width="5.30" height="5.30" fill="#FF6B35"/>
  <rect x="77.68" y="82.97" width="5.30" height="5.30" fill="#FF6B35"/>
  <rect x="82.97" y="82.97" width="5.30" height="5.30" fill="#FF6B35"/>
  <rect x="93.57" y="82.97" width="5.30" height="5.30" fill="#FF6B35"/>
  <rect x="104.16" y="82.97" width="5.30" height="5.30" fill="#FF6B35"/>
  <rect x="114.76" y="82.97" width="5.30" height="5.30" fill="#FF6B35"/>
  <rect x="125.35" y="82.97" width="5.30" height="5.30" fill="#FF6B35"/>
  <rect x="135.95" y="82.97" width="5.30" height="5.30" fill="#FF6B35"/>
  <rect x="146.54" y="82.97" width="5.30" height="5.30" fill="#FF6B35"/>
  <rect x="157.14" y="82.97" width="5.30" height="5.30" fill="#FF6B35"/>
  <rect x="167.73" y="82.97" width="5.30" height="5.30" fill="#FF6B35"/>
  <rect x="173.03" y="82.97" width="5.30" height="5.30" fill="#FF6B35"/>
  <rect x="178.32" y="82.97" width="5.30" height="5.30" fill="#FF6B35"/>
  <rect x="183.62" y="82.97" width="5.30" height="5.30" fill="#FF6B35"/>
  <rect x="188.92" y="82.97" width="5.30" height="5.30" fill="#FF6B35"/>
  <rect x="194.22" y="82.97" width="5.30" height="5.30" fill="#FF6B35"/>
  <rect x="199.51" y="82.97" width="5.30" height="5.30" fill="#FF6B35"/>
  <rect x="109.46" y="88.27" width="5.30" height="5.30" fill="#FF6B35"/>
  <rect x="125.35" y="88.27" width="5.30" height="5.30" fill="#FF6B35"/>
  <rect x="130.65" y="88.27" width="5.30" height="5.30" fill="#FF6B35"/>
  <rect x="135.95" y="88.27" width="5.30" height="5.30" fill="#FF6B35"/>
  <rect x="151.84" y="88.27" width="5.30" height="5.30" fill="#FF6B35"/>
  <rect x="61.78" y="93.57" width="5.30" height="5.30" fill="#FF6B35"/>
  <rect x="72.38" y="93.57" width="5.30" height="5.30" fill="#FF6B35"/>
  <rect x="77.68" y="93.57" width="5.30" height="5.30" fill="#FF6B35"/>
  <rect x="82.97" y="93.57" width="5.30" height="5.30" fill="#FF6B35"/>
  <rect x="93.57" y="93.57" width="5.30" height="5.30" fill="#FF6B35"/>
  <rect x="104.16" y="93.57" width="5.30" height="5.30" fill="#FF6B35"/>
  <rect x="114.76" y="93.57" width="5.30" height="5.30" fill="#FF6B35"/>
  <rect x="120.05" y="93.57" width="5.30" height="5.30" fill="#FF6B35"/>
  <rect x="125.35" y="93.57" width="5.30" height="5.30" fill="#FF6B35"/>
  <rect x="130.65" y="93.57" width="5.30" height="5.30" fill="#FF6B35"/>
  <rect x="135.95" y="93.57" width="5.30" height="5.30" fill="#FF6B35"/>
  <rect x="157.14" y="93.57" width="5.30" height="5.30" fill="#FF6B35"/>
  <rect x="162.43" y="93.57" width="5.30" height="5.30" fill="#FF6B35"/>
  <rect x="183.62" y="93.57" width="5.30" height="5.30" fill="#FF6B35"/>
  <rect x="199.51" y="93.57" width="5.30" height="5.30" fill="#FF6B35"/>
  <rect x="61.78" y="98.86" width="5.30" height="5.30" fill="#FF6B35"/>
  <rect x="72.38" y="98.86" width="5.30" height="5.30" fill="#FF6B35"/>
  <rect x="88.27" y="98.86" width="5.30" height="5.30" fill="#FF6B35"/>
  <rect x="93.57" y="98.86" width="5.30" height="5.30" fill="#FF6B35"/>
  <rect x="98.86" y="98.86" width="5.30" height="5.30" fill="#FF6B35"/>
  <rect x="104.16" y="98.86" width="5.30" height="5.30" fill="#FF6B35"/>
  <rect x="114.76" y="98.86" width="5.30" height="5.30" fill="#FF6B35"/>
  <rect x="120.05" y="98.86" width="5.30" height="5.30" fill="#FF6B35"/>
  <rect x="125.35" y="98.86" width="5.30" height="5.30" fill="#FF6B35"/>
  <rect x="130.65" y="98.86" width="5.30" height="5.30" fill="#FF6B35"/>
  <rect x="135.95" y="98.86" width="5.30" height="5.30" fill="#FF6B35"/>
  <rect x="141.24" y="98.86" width="5.30" height="5.30" fill="#FF6B35"/>
  <rect x="151.84" y="98.86" width="5.30" height="5.30" fill="#FF6B35"/>
  <rect x="157.14" y="98.86" width="5.30" height="5.30" fill="#FF6B35"/>
  <rect x="162.43" y="98.86" width="5.30" height="5.30" fill="#FF6B35"/>
  <rect x="167.73" y="98.86" width="5.30" height="5.30" fill="#FF6B35"/>
  <rect x="188.92" y="98.86" width="5.30" height="5.30" fill="#FF6B35"/>
  <rect x="199.51" y="98.86" width="5.30" height="5.30" fill="#FF6B35"/>
  <rect x="51.19" y="104.16" width="5.30" height="5.30" fill="#FF6B35"/>
  <rect x="72.38" y="104.16" width="5.30" height="5.30" fill="#FF6B35"/>
  <rect x="82.97" y="104.16" width="5.30" height="5.30" fill="#FF6B35"/>
  <rect x="104.16" y="104.16" width="5.30" height="5.30" fill="#FF6B35"/>
  <rect x="114.76" y="104.16" width="5.30" height="5.30" fill="#FF6B35"/>
  <rect x="135.95" y="104.16" width="5.30" height="5.30" fill="#FF6B35"/>
  <rect x="151.84" y="104.16" width="5.30" height="5.30" fill="#FF6B35"/>
  <rect x="157.14" y="104.16" width="5.30" height="5.30" fill="#FF6B35"/>
  <rect x="183.62" y="104.16" width="5.30" height="5.30" fill="#FF6B35"/>
  <rect x="188.92" y="104.16" width="5.30" height="5.30" fill="#FF6B35"/>
  <rect x="194.22" y="104.16" width="5.30" height="5.30" fill="#FF6B35"/>
  <rect x="199.51" y="104.16" width="5.30" height="5.30" fill="#FF6B35"/>
  <rect x="51.19" y="109.46" width="5.30" height="5.30" fill="#FF6B35"/>
  <rect x="56.49" y="109.46" width="5.30" height="5.30" fill="#FF6B35"/>
  <rect x="72.38" y="109.46" width="5.30" height="5.30" fill="#FF6B35"/>
  <rect x="98.86" y="109.46" width="5.30" height="5.30" fill="#FF6B35"/>
  <rect x="104.16" y="109.46" width="5.30" height="5.30" fill="#FF6B35"/>
  <rect x="130.65" y="109.46" width="5.30" height="5.30" fill="#FF6B35"/>
  <rect x="141.24" y="109.46" width="5.30" height="5.30" fill="#FF6B35"/>
  <rect x="146.54" y="109.46" width="5.30" height="5.30" fill="#FF6B35"/>
  <rect x="157.14" y="109.46" width="5.30" height="5.30" fill="#FF6B35"/>
  <rect x="162.43" y="109.46" width="5.30" height="5.30" fill="#FF6B35"/>
  <rect x="167.73" y="109.46" width="5.30" height="5.30" fill="#FF6B35"/>
  <rect x="178.32" y="109.46" width="5.30" height="5.30" fill="#FF6B35"/>
  <rect x="194.22" y="109.46" width="5.30" height="5.30" fill="#FF6B35"/>
  <rect x="56.49" y="114.76" width="5.30" height="5.30" fill="#FF6B35"/>
  <rect x="67.08" y="114.76" width="5.30" height="5.30" fill="#FF6B35"/>
  <rect x="77.68" y="114.76" width="5.30" height="5.30" fill="#FF6B35"/>
  <rect x="82.97" y="114.76" width="5.30" height="5.30" fill="#FF6B35"/>
  <rect x="104.16" y="114.76" width="5.30" height="5.30" fill="#FF6B35"/>
  <rect x="109.46" y="114.76" width="5.30" height="5.30" fill="#FF6B35"/>
  <rect x="120.05" y="114.76" width="5.30" height="5.30" fill="#FF6B35"/>
  <rect x="125.35" y="114.76" width="5.30" height="5.30" fill="#FF6B35"/>
  <rect x="130.65" y="114.76" width="5.30" height="5.30" fill="#FF6B35"/>
  <rect x="146.54" y="114.76" width="5.30" height="5.30" fill="#FF6B35"/>
  <rect x="151.84" y="114.76" width="5.30" height="5.30" fill="#FF6B35"/>
  <rect x="157.14" y="114.76" width="5.30" height="5.30" fill="#FF6B35"/>
  <rect x="167.73" y="114.76" width="5.30" height="5.30" fill="#FF6B35"/>
  <rect x="173.03" y="114.76" width="5.30" height="5.30" fill="#FF6B35"/>
  <rect x="61.78" y="120.05" width="5.30" height="5.30" fill="#FF6B35"/>
  <rect x="67.08" y="120.05" width="5.30" height="5.30" fill="#FF6B35"/>
  <rect x="72.38" y="120.05" width="5.30" height="5.30" fill="#FF6B35"/>
  <rect x="77.68" y="120.05" width="5.30" height="5.30" fill="#FF6B35"/>
  <rect x="93.57" y="120.05" width="5.30" height="5.30" fill="#FF6B35"/>
  <rect x="104.16" y="120.05" width="5.30" height="5.30" fill="#FF6B35"/>
  <rect x="109.46" y="120.05" width="5.30" height="5.30" fill="#FF6B35"/>
  <rect x="114.76" y="120.05" width="5.30" height="5.30" fill="#FF6B35"/>
  <rect x="130.65" y="120.05" width="5.30" height="5.30" fill="#FF6B35"/>
  <rect x="135.95" y="120.05" width="5.30" height="5.30" fill="#FF6B35"/>
  <rect x="141.24" y="120.05" width="5.30" height="5.30" fill="#FF6B35"/>
  <rect x="157.14" y="120.05" width="5.30" height="5.30" fill="#FF6B35"/>
  <rect x="162.43" y="120.05" width="5.30" height="5.30" fill="#FF6B35"/>
  <rect x="167.73" y="120.05" width="5.30" height="5.30" fill="#FF6B35"/>
  <rect x="173.03" y="120.05" width="5.30" height="5.30" fill="#FF6B35"/>
  <rect x="194.22" y="120.05" width="5.30" height="5.30" fill="#FF6B35"/>
  <rect x="199.51" y="120.05" width="5.30" height="5.30" fill="#FF6B35"/>
  <rect x="56.49" y="125.35" width="5.30" height="5.30" fill="#FF6B35"/>
  <rect x="82.97" y="125.35" width="5.30" height="5.30" fill="#FF6B35"/>
  <rect x="88.27" y="125.35" width="5.30" height="5.30" fill="#FF6B35"/>
  <rect x="93.57" y="125.35" width="5.30" height="5.30" fill="#FF6B35"/>
  <rect x="98.86" y="125.35" width="5.30" height="5.30" fill="#FF6B35"/>
  <rect x="104.16" y="125.35" width="5.30" height="5.30" fill="#FF6B35"/>
  <rect x="125.35" y="125.35" width="5.30" height="5.30" fill="#FF6B35"/>
  <rect x="135.95" y="125.35" width="5.30" height="5.30" fill="#FF6B35"/>
  <rect x="162.43" y="125.35" width="5.30" height="5.30" fill="#FF6B35"/>
  <rect x="167.73" y="125.35" width="5.30" height="5.30" fill="#FF6B35"/>
  <rect x="173.03" y="125.35" width="5.30" height="5.30" fill="#FF6B35"/>
  <rect x="188.92" y="125.35" width="5.30" height="5.30" fill="#FF6B35"/>
  <rect x="194.22" y="125.35" width="5.30" height="5.30" fill="#FF6B35"/>
  <rect x="199.51" y="125.35" width="5.30" height="5.30" fill="#FF6B35"/>
  <rect x="61.78" y="130.65" width="5.30" height="5.30" fill="#FF6B35"/>
  <rect x="67.08" y="130.65" width="5.30" height="5.30" fill="#FF6B35"/>
  <rect x="77.68" y="130.65" width="5.30" height="5.30" fill="#FF6B35"/>
  <rect x="93.57" y="130.65" width="5.30" height="5.30" fill="#FF6B35"/>
  <rect x="98.86" y="130.65" width="5.30" height="5.30" fill="#FF6B35"/>
  <rect x="109.46" y="130.65" width="5.30" height="5.30" fill="#FF6B35"/>
  <rect x="120.05" y="130.65" width="5.30" height="5.30" fill="#FF6B35"/>
  <rect x="135.95" y="130.65" width="5.30" height="5.30" fill="#FF6B35"/>
  <rect x="141.24" y="130.65" width="5.30" height="5.30" fill="#FF6B35"/>
  <rect x="146.54" y="130.65" width="5.30" height="5.30" fill="#FF6B35"/>
  <rect x="173.03" y="130.65" width="5.30" height="5.30" fill="#FF6B35"/>
  <rect x="56.49" y="135.95" width="5.30" height="5.30" fill="#FF6B35"/>
  <rect x="67.08" y="135.95" width="5.30" height="5.30" fill="#FF6B35"/>
  <rect x="72.38" y="135.95" width="5.30" height="5.30" fill="#FF6B35"/>
  <rect x="77.68" y="135.95" width="5.30" height="5.30" fill="#FF6B35"/>
  <rect x="82.97" y="135.95" width="5.30" height="5.30" fill="#FF6B35"/>
  <rect x="93.57" y="135.95" width="5.30" height="5.30" fill="#FF6B35"/>
  <rect x="98.86" y="135.95" width="5.30" height="5.30" fill="#FF6B35"/>
  <rect x="104.16" y="135.95" width="5.30" height="5.30" fill="#FF6B35"/>
  <rect x="109.46" y="135.95" width="5.30" height="5.30" fill="#FF6B35"/>
  <rect x="120.05" y="135.95" width="5.30" height="5.30" fill="#FF6B35"/>
  <rect x="130.65" y="135.95" width="5.30" height="5.30" fill="#FF6B35"/>
  <rect x="135.95" y="135.95" width="5.30" height="5.30" fill="#FF6B35"/>
  <rect x="146.54" y="135.95" width="5.30" height="5.30" fill="#FF6B35"/>
  <rect x="167.73" y="135.95" width="5.30" height="5.30" fill="#FF6B35"/>
  <rect x="183.62" y="135.95" width="5.30" height="5.30" fill="#FF6B35"/>
  <rect x="194.22" y="135.95" width="5.30" height="5.30" fill="#FF6B35"/>
  <rect x="199.51" y="135.95" width="5.30" height="5.30" fill="#FF6B35"/>
  <rect x="67.08" y="141.24" width="5.30" height="5.30" fill="#FF6B35"/>
  <rect x="72.38" y="141.24" width="5.30" height="5.30" fill="#FF6B35"/>
  <rect x="77.68" y="141.24" width="5.30" height="5.30" fill="#FF6B35"/>
  <rect x="93.57" y="141.24" width="5.30" height="5.30" fill="#FF6B35"/>
  <rect x="109.46" y="141.24" width="5.30" height="5.30" fill="#FF6B35"/>
  <rect x="130.65" y="141.24" width="5.30" height="5.30" fill="#FF6B35"/>
  <rect x="135.95" y="141.24" width="5.30" height="5.30" fill="#FF6B35"/>
  <rect x="141.24" y="141.24" width="5.30" height="5.30" fill="#FF6B35"/>
  <rect x="151.84" y="141.24" width="5.30" height="5.30" fill="#FF6B35"/>
  <rect x="162.43" y="141.24" width="5.30" height="5.30" fill="#FF6B35"/>
  <rect x="183.62" y="141.24" width="5.30" height="5.30" fill="#FF6B35"/>
  <rect x="194.22" y="141.24" width="5.30" height="5.30" fill="#FF6B35"/>
  <rect x="199.51" y="141.24" width="5.30" height="5.30" fill="#FF6B35"/>
  <rect x="51.19" y="146.54" width="5.30" height="5.30" fill="#FF6B35"/>
  <rect x="67.08" y="146.54" width="5.30" height="5.30" fill="#FF6B35"/>
  <rect x="72.38" y="146.54" width="5.30" height="5.30" fill="#FF6B35"/>
  <rect x="77.68" y="146.54" width="5.30" height="5.30" fill="#FF6B35"/>
  <rect x="82.97" y="146.54" width="5.30" height="5.30" fill="#FF6B35"/>
  <rect x="88.27" y="146.54" width="5.30" height="5.30" fill="#FF6B35"/>
  <rect x="98.86" y="146.54" width="5.30" height="5.30" fill="#FF6B35"/>
  <rect x="104.16" y="146.54" width="5.30" height="5.30" fill="#FF6B35"/>
  <rect x="109.46" y="146.54" width="5.30" height="5.30" fill="#FF6B35"/>
  <rect x="120.05" y="146.54" width="5.30" height="5.30" fill="#FF6B35"/>
  <rect x="135.95" y="146.54" width="5.30" height="5.30" fill="#FF6B35"/>
  <rect x="146.54" y="146.54" width="5.30" height="5.30" fill="#FF6B35"/>
  <rect x="162.43" y="146.54" width="5.30" height="5.30" fill="#FF6B35"/>
  <rect x="173.03" y="146.54" width="5.30" height="5.30" fill="#FF6B35"/>
  <rect x="183.62" y="146.54" width="5.30" height="5.30" fill="#FF6B35"/>
  <rect x="188.92" y="146.54" width="5.30" height="5.30" fill="#FF6B35"/>
  <rect x="194.22" y="146.54" width="5.30" height="5.30" fill="#FF6B35"/>
  <rect x="199.51" y="146.54" width="5.30" height="5.30" fill="#FF6B35"/>
  <rect x="56.49" y="151.84" width="5.30" height="5.30" fill="#FF6B35"/>
  <rect x="61.78" y="151.84" width="5.30" height="5.30" fill="#FF6B35"/>
  <rect x="67.08" y="151.84" width="5.30" height="5.30" fill="#FF6B35"/>
  <rect x="77.68" y="151.84" width="5.30" height="5.30" fill="#FF6B35"/>
  <rect x="88.27" y="151.84" width="5.30" height="5.30" fill="#FF6B35"/>
  <rect x="98.86" y="151.84" width="5.30" height="5.30" fill="#FF6B35"/>
  <rect x="125.35" y="151.84" width="5.30" height="5.30" fill="#FF6B35"/>
  <rect x="146.54" y="151.84" width="5.30" height="5.30" fill="#FF6B35"/>
  <rect x="151.84" y="151.84" width="5.30" height="5.30" fill="#FF6B35"/>
  <rect x="167.73" y="151.84" width="5.30" height="5.30" fill="#FF6B35"/>
  <rect x="178.32" y="151.84" width="5.30" height="5.30" fill="#FF6B35"/>
  <rect x="183.62" y="151.84" width="5.30" height="5.30" fill="#FF6B35"/>
  <rect x="199.51" y="151.84" width="5.30" height="5.30" fill="#FF6B35"/>
  <rect x="51.19" y="157.14" width="5.30" height="5.30" fill="#FF6B35"/>
  <rect x="77.68" y="157.14" width="5.30" height="5.30" fill="#FF6B35"/>
  <rect x="82.97" y="157.14" width="5.30" height="5.30" fill="#FF6B35"/>
  <rect x="93.57" y="157.14" width="5.30" height="5.30" fill="#FF6B35"/>
  <rect x="98.86" y="157.14" width="5.30" height="5.30" fill="#FF6B35"/>
  <rect x="130.65" y="157.14" width="5.30" height="5.30" fill="#FF6B35"/>
  <rect x="135.95" y="157.14" width="5.30" height="5.30" fill="#FF6B35"/>
  <rect x="157.14" y="157.14" width="5.30" height="5.30" fill="#FF6B35"/>
  <rect x="162.43" y="157.14" width="5.30" height="5.30" fill="#FF6B35"/>
  <rect x="167.73" y="157.14" width="5.30" height="5.30" fill="#FF6B35"/>
  <rect x="173.03" y="157.14" width="5.30" height="5.30" fill="#FF6B35"/>
  <rect x="178.32" y="157.14" width="5.30" height="5.30" fill="#FF6B35"/>
  <rect x="199.51" y="157.14" width="5.30" height="5.30" fill="#FF6B35"/>
  <rect x="93.57" y="162.43" width="5.30" height="5.30" fill="#FF6B35"/>
  <rect x="104.16" y="162.43" width="5.30" height="5.30" fill="#FF6B35"/>
  <rect x="114.76" y="162.43" width="5.30" height="5.30" fill="#FF6B35"/>
  <rect x="135.95" y="162.43" width="5.30" height="5.30" fill="#FF6B35"/>
  <rect x="141.24" y="162.43" width="5.30" height="5.30" fill="#FF6B35"/>
  <rect x="157.14" y="162.43" width="5.30" height="5.30" fill="#FF6B35"/>
  <rect x="178.32" y="162.43" width="5.30" height="5.30" fill="#FF6B35"/>
  <rect x="199.51" y="162.43" width="5.30" height="5.30" fill="#FF6B35"/>
  <rect x="51.19" y="167.73" width="5.30" height="5.30" fill="#FF6B35"/>
  <rect x="56.49" y="167.73" width="5.30" height="5.30" fill="#FF6B35"/>
  <rect x="61.78" y="167.73" width="5.30" height="5.30" fill="#FF6B35"/>
  <rect x="67.08" y="167.73" width="5.30" height="5.30" fill="#FF6B35"/>
  <rect x="72.38" y="167.73" width="5.30" height="5.30" fill="#FF6B35"/>
  <rect x="77.68" y="167.73" width="5.30" height="5.30" fill="#FF6B35"/>
  <rect x="82.97" y="167.73" width="5.30" height="5.30" fill="#FF6B35"/>
  <rect x="98.86" y="167.73" width="5.30" height="5.30" fill="#FF6B35"/>
  <rect x="104.16" y="167.73" width="5.30" height="5.30" fill="#FF6B35"/>
  <rect x="120.05" y="167.73" width="5.30" height="5.30" fill="#FF6B35"/>
  <rect x="125.35" y="167.73" width="5.30" height="5.30" fill="#FF6B35"/>
  <rect x="135.95" y="167.73" width="5.30" height="5.30" fill="#FF6B35"/>
  <rect x="146.54" y="167.73" width="5.30" height="5.30" fill="#FF6B35"/>
  <rect x="151.84" y="167.73" width="5.30" height="5.30" fill="#FF6B35"/>
  <rect x="157.14" y="167.73" width="5.30" height="5.30" fill="#FF6B35"/>
  <rect x="167.73" y="167.73" width="5.30" height="5.30" fill="#FF6B35"/>
  <rect x="178.32" y="167.73" width="5.30" height="5.30" fill="#FF6B35"/>
  <rect x="188.92" y="167.73" width="5.30" height="5.30" fill="#FF6B35"/>
  <rect x="194.22" y="167.73" width="5.30" height="5.30" fill="#FF6B35"/>
  <rect x="199.51" y="167.73" width="5.30" height="5.30" fill="#FF6B35"/>
  <rect x="51.19" y="173.03" width="5.30" height="5.30" fill="#FF6B35"/>
  <rect x="82.97" y="173.03" width="5.30" height="5.30" fill="#FF6B35"/>
  <rect x="93.57" y="173.03" width="5.30" height="5.30" fill="#FF6B35"/>
  <rect x="109.46" y="173.03" width="5.30" height="5.30" fill="#FF6B35"/>
  <rect x="114.76" y="173.03" width="5.30" height="5.30" fill="#FF6B35"/>
  <rect x="120.05" y="173.03" width="5.30" height="5.30" fill="#FF6B35"/>
  <rect x="125.35" y="173.03" width="5.30" height="5.30" fill="#FF6B35"/>
  <rect x="130.65" y="173.03" width="5.30" height="5.30" fill="#FF6B35"/>
  <rect x="141.24" y="173.03" width="5.30" height="5.30" fill="#FF6B35"/>
  <rect x="157.14" y="173.03" width="5.30" height="5.30" fill="#FF6B35"/>
  <rect x="178.32" y="173.03" width="5.30" height="5.30" fill="#FF6B35"/>
  <rect x="199.51" y="173.03" width="5.30" height="5.30" fill="#FF6B35"/>
  <rect x="51.19" y="178.32" width="5.30" height="5.30" fill="#FF6B35"/>
  <rect x="61.78" y="178.32" width="5.30" height="5.30" fill="#FF6B35"/>
  <rect x="67.08" y="178.32" width="5.30" height="5.30" fill="#FF6B35"/>
  <rect x="72.38" y="178.32" width="5.30" height="5.30" fill="#FF6B35"/>
  <rect x="82.97" y="178.32" width="5.30" height="5.30" fill="#FF6B35"/>
  <rect x="93.57" y="178.32" width="5.30" height="5.30" fill="#FF6B35"/>
  <rect x="98.86" y="178.32" width="5.30" height="5.30" fill="#FF6B35"/>
  <rect x="104.16" y="178.32" width="5.30" height="5.30" fill="#FF6B35"/>
  <rect x="109.46" y="178.32" width="5.30" height="5.30" fill="#FF6B35"/>
  <rect x="120.05" y="178.32" width="5.30" height="5.30" fill="#FF6B35"/>
  <rect x="141.24" y="178.32" width="5.30" height="5.30" fill="#FF6B35"/>
  <rect x="146.54" y="178.32" width="5.30" height="5.30" fill="#FF6B35"/>
  <rect x="157.14" y="178.32" width="5.30" height="5.30" fill="#FF6B35"/>
  <rect x="162.43" y="178.32" width="5.30" height="5.30" fill="#FF6B35"/>
  <rect x="167.73" y="178.32" width="5.30" height="5.30" fill="#FF6B35"/>
  <rect x="173.03" y="178.32" width="5.30" height="5.30" fill="#FF6B35"/>
  <rect x="178.32" y="178.32" width="5.30" height="5.30" fill="#FF6B35"/>
  <rect x="183.62" y="178.32" width="5.30" height="5.30" fill="#FF6B35"/>
  <rect x="199.51" y="178.32" width="5.30" height="5.30" fill="#FF6B35"/>
  <rect x="51.19" y="183.62" width="5.30" height="5.30" fill="#FF6B35"/>
  <rect x="61.78" y="183.62" width="5.30" height="5.30" fill="#FF6B35"/>
  <rect x="67.08" y="183.62" width="5.30" height="5.30" fill="#FF6B35"/>
  <rect x="72.38" y="183.62" width="5.30" height="5.30" fill="#FF6B35"/>
  <rect x="82.97" y="183.62" width="5.30" height="5.30" fill="#FF6B35"/>
  <rect x="104.16" y="183.62" width="5.30" height="5.30" fill="#FF6B35"/>
  <rect x="109.46" y="183.62" width="5.30" height="5.30" fill="#FF6B35"/>
  <rect x="114.76" y="183.62" width="5.30" height="5.30" fill="#FF6B35"/>
  <rect x="135.95" y="183.62" width="5.30" height="5.30" fill="#FF6B35"/>
  <rect x="141.24" y="183.62" width="5.30" height="5.30" fill="#FF6B35"/>
  <rect x="157.14" y="183.62" width="5.30" height="5.30" fill="#FF6B35"/>
  <rect x="162.43" y="183.62" width="5.30" height="5.30" fill="#FF6B35"/>
  <rect x="178.32" y="183.62" width="5.30" height="5.30" fill="#FF6B35"/>
  <rect x="188.92" y="183.62" width="5.30" height="5.30" fill="#FF6B35"/>
  <rect x="51.19" y="188.92" width="5.30" height="5.30" fill="#FF6B35"/>
  <rect x="61.78" y="188.92" width="5.30" height="5.30" fill="#FF6B35"/>
  <rect x="67.08" y="188.92" width="5.30" height="5.30" fill="#FF6B35"/>
  <rect x="72.38" y="188.92" width="5.30" height="5.30" fill="#FF6B35"/>
  <rect x="82.97" y="188.92" width="5.30" height="5.30" fill="#FF6B35"/>
  <rect x="93.57" y="188.92" width="5.30" height="5.30" fill="#FF6B35"/>
  <rect x="98.86" y="188.92" width="5.30" height="5.30" fill="#FF6B35"/>
  <rect x="109.46" y="188.92" width="5.30" height="5.30" fill="#FF6B35"/>
  <rect x="120.05" y="188.92" width="5.30" height="5.30" fill="#FF6B35"/>
  <rect x="130.65" y="188.92" width="5.30" height="5.30" fill="#FF6B35"/>
  <rect x="141.24" y="188.92" width="5.30" height="5.30" fill="#FF6B35"/>
  <rect x="151.84" y="188.92" width="5.30" height="5.30" fill="#FF6B35"/>
  <rect x="173.03" y="188.92" width="5.30" height="5.30" fill="#FF6B35"/>
  <rect x="178.32" y="188.92" width="5.30" height="5.30" fill="#FF6B35"/>
  <rect x="199.51" y="188.92" width="5.30" height="5.30" fill="#FF6B35"/>
  <rect x="51.19" y="194.22" width="5.30" height="5.30" fill="#FF6B35"/>
  <rect x="82.97" y="194.22" width="5.30" height="5.30" fill="#FF6B35"/>
  <rect x="104.16" y="194.22" width="5.30" height="5.30" fill="#FF6B35"/>
  <rect x="125.35" y="194.22" width="5.30" height="5.30" fill="#FF6B35"/>
  <rect x="130.65" y="194.22" width="5.30" height="5.30" fill="#FF6B35"/>
  <rect x="135.95" y="194.22" width="5.30" height="5.30" fill="#FF6B35"/>
  <rect x="141.24" y="194.22" width="5.30" height="5.30" fill="#FF6B35"/>
  <rect x="146.54" y="194.22" width="5.30" height="5.30" fill="#FF6B35"/>
  <rect x="151.84" y="194.22" width="5.30" height="5.30" fill="#FF6B35"/>
  <rect x="167.73" y="194.22" width="5.30" height="5.30" fill="#FF6B35"/>
  <rect x="173.03" y="194.22" width="5.30" height="5.30" fill="#FF6B35"/>
  <rect x="194.22" y="194.22" width="5.30" height="5.30" fill="#FF6B35"/>
  <rect x="51.19" y="199.51" width="5.30" height="5.30" fill="#FF6B35"/>
  <rect x="56.49" y="199.51" width="5.30" height="5.30" fill="#FF6B35"/>
  <rect x="61.78" y="199.51" width="5.30" height="5.30" fill="#FF6B35"/>
  <rect x="67.08" y="199.51" width="5.30" height="5.30" fill="#FF6B35"/>
  <rect x="72.38" y="199.51" width="5.30" height="5.30" fill="#FF6B35"/>
  <rect x="77.68" y="199.51" width="5.30" height="5.30" fill="#FF6B35"/>
  <rect x="82.97" y="199.51" width="5.30" height="5.30" fill="#FF6B35"/>
  <rect x="104.16" y="199.51" width="5.30" height="5.30" fill="#FF6B35"/>
  <rect x="114.76" y="199.51" width="5.30" height="5.30" fill="#FF6B35"/>
  <rect x="125.35" y="199.51" width="5.30" height="5.30" fill="#FF6B35"/>
  <rect x="130.65" y="199.51" width="5.30" height="5.30" fill="#FF6B35"/>
  <rect x="141.24" y="199.51" width="5.30" height="5.30" fill="#FF6B35"/>
  <rect x="151.84" y="199.51" width="5.30" height="5.30" fill="#FF6B35"/>
  <rect x="178.32" y="199.51" width="5.30" height="5.30" fill="#FF6B35"/>
  <rect x="194.22" y="199.51" width="5.30" height="5.30" fill="#FF6B35"/>
  <rect x="199.51" y="199.51" width="5.30" height="5.30" fill="#FF6B35"/>
</svg>
