<svg width="256" height="256" viewBox="0 0 32 32" xmlns="http://www.w3.org/2000/svg" role="img" aria-label="Satsuma">
  <rect width="32" height="32" fill="#0A0A0B"/>
  <rect x="2" y="2" width="8" height="8" rx="1" fill="#FF6B35"/>
  <rect x="4" y="4" width="4" height="4" rx="0.5" fill="#0A0A0B"/>
  <rect x="5" y="5" width="2" height="2" fill="#FF6B35"/>
  <rect x="22" y="2" width="8" height="8" rx="1" fill="#FF6B35"/>
  <rect x="24" y="4" width="4" height="4" rx="0.5" fill="#0A0A0B"/>
  <rect x="25" y="5" width="2" height="2" fill="#FF6B35"/>
  <rect x="2" y="22" width="8" height="8" rx="1" fill="#FF6B35"/>
  <rect x="4" y="24" width="4" height="4" rx="0.5" fill="#0A0A0B"/>
  <rect x="5" y="25" width="2" height="2" fill="#FF6B35"/>
  <rect x="12" y="2" width="2" height="2" fill="#FF6B35"/>
  <rect x="16" y="2" width="2" height="2" fill="#FF6B35"/>
  <rect x="14" y="4" width="2" height="2" fill="#FF6B35"/>
  <rect x="2" y="12" width="2" height="2" fill="#FF6B35"/>
  <rect x="4" y="14" width="2" height="2" fill="#FF6B35"/>
  <rect x="2" y="16" width="2" height="2" fill="#FF6B35"/>
  <rect x="12" y="12" width="8" height="8" rx="1" fill="#FF6B35"/>
  <rect x="14" y="14" width="4" height="4" rx="0.5" fill="#0A0A0B"/>
  <rect x="15" y="15" width="2" height="2" fill="#FF6B35"/>
  <rect x="22" y="12" width="2" height="2" fill="#FF6B35"/>
  <rect x="26" y="14" width="2" height="2" fill="#FF6B35"/>
  <rect x="28" y="12" width="2" height="2" fill="#FF6B35"/>
  <rect x="24" y="16" width="2" height="2" fill="#FF6B35"/>
  <rect x="28" y="16" width="2" height="2" fill="#FF6B35"/>
  <rect x="12" y="22" width="2" height="2" fill="#FF6B35"/>
  <rect x="16" y="24" width="2" height="2" fill="#FF6B35"/>
  <rect x="14" y="26" width="2" height="2" fill="#FF6B35"/>
  <rect x="18" y="22" width="2" height="2" fill="#FF6B35"/>
  <rect x="22" y="22" width="2" height="2" fill="#FF6B35"/>
  <rect x="26" y="24" width="2" height="2" fill="#FF6B35"/>
  <rect x="24" y="26" width="2" height="2" fill="#FF6B35"/>
  <rect x="28" y="28" width="2" height="2" fill="#FF6B35"/>
</svg>
